<svg width="403" height="401" viewBox="0 0 403 401" fill="none" xmlns="http://www.w3.org/2000/svg">
<path d="M139.336 336.716L139.261 336.122L138.702 335.907C134.412 334.257 130.369 332.278 126.572 329.97C122.747 327.646 119.014 325.155 115.374 322.499L114.918 322.166L114.397 322.384L55.5611 347.106L1.30817 253.395L52.2318 214.831L52.7014 214.475L52.6181 213.892C52.29 211.596 52.1269 209.385 52.1269 207.257V193.743C52.1269 191.615 52.29 189.404 52.6181 187.108L52.7014 186.525L52.2318 186.169L1.30817 147.605L55.5611 53.8942L114.397 78.6157L114.917 78.834L115.373 78.5025C119.021 75.8493 122.836 73.3614 126.817 71.0388C130.791 68.7205 134.762 66.7357 138.728 65.0831L139.264 64.8599L139.336 64.284L147.246 1H255.754L263.664 64.284L263.739 64.8783L264.298 65.0933C268.588 66.7435 272.631 68.7224 276.428 71.0296C280.253 73.354 283.986 75.8446 287.626 78.5015L288.082 78.8345L288.603 78.6157L347.439 53.8942L401.692 147.605L350.768 186.169L350.299 186.525L350.382 187.108C350.71 189.404 350.873 191.615 350.873 193.743V207.257C350.873 209.333 350.555 211.499 349.909 213.759L349.721 214.418L350.267 214.831L401.191 253.395L346.939 347.103L288.605 322.385L288.085 322.165L287.627 322.497C283.979 325.151 280.164 327.639 276.183 329.961C272.209 332.28 268.238 334.264 264.272 335.917L263.736 336.14L263.664 336.716L255.754 400H147.246L139.336 336.716ZM202.503 271.675C222.149 271.675 238.944 264.719 252.833 250.831C266.721 236.942 273.677 220.147 273.677 200.5C273.677 180.853 266.721 164.058 252.833 150.169C238.944 136.281 222.149 129.325 202.503 129.325C182.527 129.325 165.641 136.277 151.907 150.173C138.181 164.063 131.315 180.857 131.328 200.501C131.329 220.143 138.194 236.937 151.907 250.826C165.627 264.723 182.514 271.675 202.503 271.675Z" stroke="#00C9B7" stroke-width="2"/>
</svg>
