<svg width="151" height="40" viewBox="0 0 151 40" fill="none" xmlns="http://www.w3.org/2000/svg">
<path d="M51.0757 17.0553H52.6937V29.4205H51.0757V26.8518C50.2161 28.5467 48.3959 29.738 46.2975 29.738C43.0867 29.738 40.3816 26.9044 40.3816 23.2243C40.3816 19.5442 42.9856 16.7368 46.3481 16.7368C48.3706 16.7368 50.1909 17.7694 51.0757 19.4643V17.0544V17.0553ZM51.0757 23.2778C51.0757 20.3916 48.8509 18.3528 46.4745 18.3528C44.098 18.3528 41.9743 20.5767 41.9743 23.2252C41.9743 25.8738 43.9969 28.124 46.4997 28.124C49.0026 28.124 51.0757 26.0589 51.0757 23.2788V23.2778Z" fill="#10E7D3" stroke="#10E7D3" stroke-width="2" stroke-miterlimit="10"/>
<path d="M68.2669 22.2183V29.4207H66.6489V22.2982C66.6489 19.9155 65.2078 18.4057 63.3117 18.4057C61.4156 18.4057 59.4183 19.5707 59.3678 22.5631V29.4207H57.7498V17.0556H59.3678V19.2794C60.0757 17.5056 61.9971 16.7371 63.4634 16.7371C66.3202 16.7371 68.2669 18.8021 68.2669 22.2183Z" fill="#10E7D3" stroke="#10E7D3" stroke-width="2" stroke-miterlimit="10"/>
<path d="M81.2357 17.0557H82.9801L75.5726 35.4319H73.8534L76.2805 29.2893L71.4011 17.0566H73.1456L77.1653 27.1716L81.2357 17.0566V17.0557Z" fill="#10E7D3" stroke="#10E7D3" stroke-width="2" stroke-miterlimit="10"/>
<path d="M105.302 22.2178V29.4202H103.684V22.2977C103.684 19.915 102.319 18.3789 100.372 18.3789C98.1476 18.3526 96.6813 19.8089 96.6813 23.1188V29.4202H95.0886V22.2977C95.0886 19.8878 93.7234 18.3789 91.8525 18.3789C89.9817 18.3789 88.1361 19.5965 88.0855 22.5626V29.4202H86.4675V17.0551H88.0855V19.2527C88.667 17.6113 90.3862 16.7375 92.1306 16.7375C94.0267 16.7375 95.6195 17.7964 96.2768 19.7027C97.1869 17.2665 99.2347 16.7375 100.625 16.7375C103.482 16.7375 105.302 18.8026 105.302 22.2188V22.2178Z" fill="#4D82A9" stroke="#4D82A9" stroke-miterlimit="10"/>
<path d="M119.081 17.0553H120.699V29.4205H119.081V26.8518C118.221 28.5467 116.401 29.738 114.303 29.738C111.092 29.738 108.387 26.9044 108.387 23.2243C108.387 19.5442 110.991 16.7368 114.353 16.7368C116.376 16.7368 118.196 17.7694 119.081 19.4643V17.0544V17.0553ZM119.081 23.2778C119.081 20.3916 116.856 18.3528 114.48 18.3528C112.103 18.3528 109.979 20.5767 109.979 23.2252C109.979 25.8738 112.002 28.124 114.505 28.124C117.008 28.124 119.081 26.0589 119.081 23.2788V23.2778Z" fill="#4D82A9" stroke="#4D82A9" stroke-miterlimit="10"/>
<path d="M124.313 14.6446C124.313 13.9296 124.895 13.427 125.552 13.427C126.26 13.427 126.816 13.9296 126.816 14.6446C126.816 15.3596 126.26 15.8359 125.552 15.8359C124.895 15.8359 124.313 15.3333 124.313 14.6446ZM124.743 29.4216V17.0565H126.361V29.4216H124.743Z" fill="#4D82A9" stroke="#4D82A9" stroke-miterlimit="10"/>
<path d="M140.923 22.218V29.4205H139.305V22.2979C139.305 19.9153 137.864 18.4054 135.968 18.4054C134.072 18.4054 132.075 19.5704 132.024 22.5629V29.4205H130.406V17.0553H132.024V19.2792C132.732 17.5054 134.653 16.7368 136.12 16.7368C138.976 16.7368 140.923 18.8019 140.923 22.218Z" fill="#4D82A9" stroke="#4D82A9" stroke-miterlimit="10"/>
<path d="M149.468 27.8059C147.345 27.8059 146.864 26.3233 146.864 24.417V18.5121H149.544V17.0558H146.864V13.5618H145.246V17.0558H143.123V18.5121H145.246V24.4433C145.246 27.4358 146.258 29.421 149.367 29.421H149.999V27.8059H149.468Z" fill="#4D82A9" stroke="#4D82A9" stroke-miterlimit="10"/>
<path d="M33.2556 37.7339C34.7957 37.7339 36.0443 36.4831 36.0443 34.9402C36.0443 33.3973 34.7957 32.1465 33.2556 32.1465C31.7154 32.1465 30.4668 33.3973 30.4668 34.9402C30.4668 36.4831 31.7154 37.7339 33.2556 37.7339Z" fill="#10E7D3"/>
<path d="M24.8421 5.59073C24.8421 5.59073 22.6572 0.163086 22.3548 0.163086H17.9149C17.6067 0.163086 15.5813 5.60047 15.5813 5.60047L13.1124 6.60378C13.1124 6.60378 7.64088 4.27473 7.4289 4.48611L4.29009 7.55644C4.06937 7.76393 6.56836 13.0084 6.56836 13.0084L5.55223 15.4291C5.55223 15.4291 0 17.5672 0 17.8497V22.198C0 22.5 5.5639 24.4832 5.5639 24.4832L6.58683 26.8941C6.58683 26.8941 4.21036 32.2468 4.42039 32.4484L7.5592 35.5255C7.77798 35.7272 13.1396 33.2881 13.1396 33.2881L15.6211 34.2836C15.6211 34.2836 17.7992 39.7122 18.1007 39.7122H22.5473C22.8497 39.7122 24.8713 34.2748 24.8713 34.2748L27.1943 33.3192L24.1371 29.7852C22.9275 30.2645 21.609 30.5275 20.2282 30.5275C14.3687 30.5275 9.62063 25.7856 9.62063 19.9372C9.62063 14.0887 14.3687 9.34682 20.2282 9.34682C22.9635 9.34682 25.4566 10.3813 27.3372 12.0772L31.1158 9.84166C29.2732 7.51748 27.4694 6.64762 24.8421 5.59073Z" fill="#4D82A9"/>
<path d="M38.1751 8.81128L18.7043 19.7737L32.475 35.5316L33.9375 34.2477L21.7459 20.2958L39.128 10.5101L38.1751 8.81128Z" fill="#10E7D3"/>
<path d="M38.7031 13.6057C40.8287 13.6057 42.5518 11.8795 42.5518 9.75023C42.5518 7.62092 40.8287 5.89478 38.7031 5.89478C36.5776 5.89478 34.8545 7.62092 34.8545 9.75023C34.8545 11.8795 36.5776 13.6057 38.7031 13.6057Z" fill="#10E7D3"/>
<path d="M20.2104 26.8926C24.034 26.8926 27.1337 23.7874 27.1337 19.957C27.1337 16.1266 24.034 13.0215 20.2104 13.0215C16.3868 13.0215 13.2871 16.1266 13.2871 19.957C13.2871 23.7874 16.3868 26.8926 20.2104 26.8926Z" fill="#10E7D3"/>
</svg>
