<svg width="26" height="26" viewBox="0 0 26 26" fill="none" xmlns="http://www.w3.org/2000/svg">
<path d="M7.4502 0.163086H18.2401C22.3506 0.163086 25.6903 3.50283 25.6903 7.61328V18.4032C25.6903 20.3791 24.9054 22.2741 23.5082 23.6713C22.111 25.0685 20.2161 25.8534 18.2401 25.8534H7.4502C3.33974 25.8534 0 22.5137 0 18.4032V7.61328C0 5.63737 0.78493 3.74238 2.18211 2.3452C3.5793 0.948015 5.47428 0.163086 7.4502 0.163086M7.19329 2.73212C5.96686 2.73212 4.79067 3.21932 3.92345 4.08653C3.05623 4.95375 2.56903 6.12995 2.56903 7.35638V18.6601C2.56903 21.2163 4.63711 23.2844 7.19329 23.2844H18.497C19.7235 23.2844 20.8997 22.7972 21.7669 21.93C22.6341 21.0628 23.1213 19.8866 23.1213 18.6601V7.35638C23.1213 4.80019 21.0532 2.73212 18.497 2.73212H7.19329ZM19.5889 4.6589C20.0147 4.6589 20.4231 4.82806 20.7242 5.12918C21.0254 5.4303 21.1945 5.8387 21.1945 6.26454C21.1945 6.69039 21.0254 7.09879 20.7242 7.3999C20.4231 7.70102 20.0147 7.87019 19.5889 7.87019C19.163 7.87019 18.7546 7.70102 18.4535 7.3999C18.1524 7.09879 17.9832 6.69039 17.9832 6.26454C17.9832 5.8387 18.1524 5.4303 18.4535 5.12918C18.7546 4.82806 19.163 4.6589 19.5889 4.6589ZM12.8452 6.58567C14.5485 6.58567 16.1822 7.26233 17.3866 8.4668C18.5911 9.67127 19.2678 11.3049 19.2678 13.0083C19.2678 14.7116 18.5911 16.3452 17.3866 17.5497C16.1822 18.7542 14.5485 19.4308 12.8452 19.4308C11.1418 19.4308 9.50818 18.7542 8.30372 17.5497C7.09925 16.3452 6.42258 14.7116 6.42258 13.0083C6.42258 11.3049 7.09925 9.67127 8.30372 8.4668C9.50818 7.26233 11.1418 6.58567 12.8452 6.58567M12.8452 9.1547C11.8231 9.1547 10.843 9.5607 10.1203 10.2834C9.39762 11.0061 8.99162 11.9862 8.99162 13.0083C8.99162 14.0303 9.39762 15.0104 10.1203 15.7331C10.843 16.4558 11.8231 16.8618 12.8452 16.8618C13.8672 16.8618 14.8474 16.4558 15.57 15.7331C16.2927 15.0104 16.6987 14.0303 16.6987 13.0083C16.6987 11.9862 16.2927 11.0061 15.57 10.2834C14.8474 9.5607 13.8672 9.1547 12.8452 9.1547Z" fill="white"/>
</svg>
