<svg width="26" height="26" viewBox="0 0 26 26" fill="none" xmlns="http://www.w3.org/2000/svg">
<path d="M22.1033 3.90817C19.6056 1.42334 16.5542 0.163086 13.0346 0.163086C9.48222 0.163086 6.42221 1.42477 3.93881 3.90959C1.45113 6.39442 0.189453 9.45728 0.189453 13.0083C0.189453 16.5264 1.44971 19.5778 3.93453 22.0769C6.41936 24.5832 9.48079 25.8534 13.0346 25.8534C16.5556 25.8534 19.6071 24.5832 22.1062 22.0812C24.611 19.5793 25.8798 16.5264 25.8798 13.0083C25.8798 9.45728 24.6095 6.39442 22.1033 3.90817ZM20.088 20.0631C18.4653 21.6887 16.6113 22.615 14.4619 22.8962V15.8627H17.3163V13.0083H14.4619V11.0101C14.4619 10.8975 14.4841 10.7861 14.5272 10.6821C14.5703 10.5781 14.6335 10.4836 14.7132 10.4041C14.7929 10.3245 14.8874 10.2615 14.9915 10.2185C15.0955 10.1756 15.2071 10.1536 15.3196 10.1538H17.3163V7.29929H15.3225C14.2635 7.29929 13.38 7.68893 12.6721 8.47248C11.9642 9.25318 11.6074 10.2066 11.6074 11.3384V13.0083H8.7529V15.8627H11.6074V22.899C9.43512 22.6207 7.574 21.693 5.95979 20.0674C3.99733 18.0921 3.04394 15.7828 3.04394 13.0083C3.04394 10.2023 3.9959 7.88731 5.95836 5.92914C7.91368 3.96954 10.2287 3.01757 13.0346 3.01757C15.8106 3.01757 18.1185 3.97097 20.0923 5.93342C22.0662 7.8916 23.0253 10.2066 23.0253 13.0083C23.0253 15.7785 22.0648 18.0878 20.088 20.0631V20.0631Z" fill="white"/>
</svg>
