<svg width="51" height="33" viewBox="0 0 51 33" fill="none" xmlns="http://www.w3.org/2000/svg">
<path d="M28.128 21.4241C28.128 19.17 28.3181 17.1291 28.6985 15.3014C29.1422 13.4738 29.776 11.768 30.6001 10.184C31.4875 8.60007 32.565 7.04657 33.8328 5.52353C35.1005 4.0005 36.5584 2.447 38.2065 0.863037L45.2424 4.06142C44.7353 4.54879 44.2599 5.12754 43.8162 5.79768C43.4359 6.34598 43.0238 7.04657 42.5801 7.89947C42.1364 8.75238 41.7244 9.69666 41.3441 10.7323C44.0063 11.2197 46.2249 12.4686 47.9997 14.479C49.7745 16.4894 50.6619 18.8044 50.6619 21.4241C50.6619 22.9471 50.345 24.3787 49.7111 25.719C49.1407 26.9984 48.3483 28.1254 47.3341 29.1002C46.32 30.0749 45.1156 30.8669 43.7211 31.4761C42.39 32.0244 40.9321 32.2985 39.3474 32.2985C37.8261 32.2985 36.3682 32.0244 34.9737 31.4761C33.6426 30.8669 32.47 30.0749 31.4558 29.1002C30.4416 28.1254 29.6176 26.9984 28.9837 25.719C28.4132 24.3787 28.128 22.9471 28.128 21.4241ZM0.269531 20.5102C0.332918 18.4389 0.586465 16.5503 1.03017 14.8445C1.47388 13.0778 2.10775 11.4329 2.93177 9.90988C3.81919 8.32592 4.86507 6.83335 6.06941 5.43215C7.33715 3.97004 8.76335 2.447 10.348 0.863037L17.3839 4.06142C16.8768 4.54879 16.4014 5.12754 15.9577 5.79768C15.5774 6.34598 15.1654 7.04657 14.7217 7.89947C14.278 8.75238 13.866 9.69666 13.4857 10.7323C16.1479 11.2197 18.3664 12.4686 20.1413 14.479C21.9161 16.4894 22.8035 18.8044 22.8035 21.4241C22.8035 22.9471 22.4866 24.3787 21.8527 25.719C21.2822 26.9984 20.4899 28.1254 19.4757 29.1002C18.4615 30.0749 17.2572 30.8669 15.8627 31.4761C14.5315 32.0244 13.0736 32.2985 11.489 32.2985C9.96769 32.2985 8.5098 32.0244 7.11529 31.4761C5.78417 30.8669 4.61152 30.0445 3.59733 29.0088C2.58315 27.9731 1.75912 26.7547 1.12525 25.3535C0.554771 23.8914 0.269531 22.277 0.269531 20.5102Z" fill="#42E8E0"/>
</svg>
