<svg width="79" height="78" viewBox="0 0 79 78" fill="none" xmlns="http://www.w3.org/2000/svg">
<path d="M5.2485 65.8106V44.795C4.4874 44.795 3.75744 44.8012 3.02902 44.795C1.29515 44.7779 0.0282158 43.5637 0.0157643 41.8424C-0.00602579 38.9332 -0.00446935 36.024 0.0157643 33.1148C0.0282158 31.3609 1.24535 30.1916 3.00723 30.1823C3.73876 30.1792 4.47028 30.1823 5.30298 30.1823C5.30298 29.1232 5.30298 28.1338 5.30298 27.1444C5.30298 26.3582 5.29519 25.572 5.30453 24.7858C5.33255 22.5635 6.61505 21.2873 8.85321 21.2857C15.0883 21.278 21.3218 21.2826 27.5569 21.2826C27.8682 21.2826 28.181 21.2826 28.6075 21.2826V20.2374C28.6075 19.0325 28.5732 17.8245 28.6199 16.6211C28.6464 15.9357 28.5079 15.517 27.8308 15.1293C26.4783 14.3555 25.9584 12.6915 26.4191 11.223C26.883 9.74357 28.2837 8.77901 29.9165 8.81623C31.3873 8.85035 32.7741 9.95757 33.1305 11.3843C33.5103 12.9024 32.9017 14.4826 31.5351 15.2285C31.0013 15.5201 30.8737 15.8473 30.8861 16.4009C30.9188 17.9935 30.897 19.5861 30.897 21.2299H37.8512C37.8652 20.9942 37.8916 20.7662 37.8916 20.5367C37.8947 16.2381 37.887 11.9394 37.9025 7.64077C37.9041 7.1802 37.8154 6.90572 37.3578 6.6638C35.8792 5.88378 35.2006 4.2679 35.627 2.74508C36.0628 1.17728 37.378 0.166194 38.9811 0.163093C40.6232 0.159991 41.9539 1.18813 42.3819 2.79005C42.7866 4.30822 42.0675 5.86672 40.6123 6.71808C40.3897 6.84834 40.1236 7.15073 40.1236 7.37404C40.0971 11.9084 40.1049 16.4428 40.108 20.9771C40.108 21.05 40.1438 21.1229 40.1734 21.2361H47.0933C47.0933 19.4264 47.1135 17.6524 47.0668 15.8799C47.0606 15.669 46.7104 15.4239 46.4707 15.2689C45.2878 14.5043 44.6699 13.4297 44.7695 12.034C44.8738 10.5701 45.6785 9.53732 47.0481 9.00697C48.7026 8.36651 50.5968 9.15584 51.3781 10.7578C52.1781 12.3953 51.6116 14.3431 49.996 15.2441C49.4964 15.5216 49.3688 15.8271 49.3781 16.3497C49.4061 17.947 49.389 19.5443 49.389 21.2795C49.7283 21.2795 50.0287 21.2795 50.3291 21.2795C56.5113 21.2795 62.6934 21.2795 68.8756 21.2795C71.4795 21.2795 72.6935 22.4798 72.6935 25.0664C72.6951 38.2757 72.6935 51.4864 72.6935 64.6956C72.6935 65.0337 72.6935 65.3702 72.6935 65.7796C72.9721 65.8044 73.1963 65.8416 73.4204 65.8432C74.4461 65.8494 75.4718 65.8385 76.4975 65.8478C77.6741 65.8602 77.9543 66.1781 77.9916 67.3521C78.0617 69.5231 77.9496 71.6476 76.7309 73.5566C74.9628 76.3277 72.4461 77.8397 69.1371 77.8428C49.0388 77.8614 28.9406 77.8537 8.84231 77.8506C3.96444 77.8506 0.0344415 73.9303 0.00953857 69.0687C0.0064257 68.4655 0.0064257 67.8638 0.00953857 67.2606C0.0157643 66.2092 0.351954 65.8664 1.43212 65.8509C2.43135 65.837 3.43214 65.8509 4.43137 65.8463C4.68818 65.8463 4.945 65.8246 5.2485 65.8106ZM37.3157 65.7905H66.2701V27.7027H11.7357V30.1808C14.4533 30.1808 17.107 30.1761 19.7592 30.1808C21.479 30.1839 22.7117 31.3485 22.7273 33.0543C22.7553 35.9899 22.7506 38.9254 22.7288 41.8594C22.7179 43.3497 21.7078 44.4972 20.2463 44.7717C20.0767 44.8043 19.9055 44.8322 19.7 44.8694C19.7 45.6556 19.6938 46.3876 19.7016 47.118C19.7093 47.8127 19.7405 48.5385 18.9327 48.8409C18.1093 49.1479 17.6875 48.5214 17.2331 48.0143C16.3926 47.0761 15.5583 46.1317 14.7038 45.2075C14.5389 45.0307 14.2945 44.8306 14.075 44.8167C13.2984 44.7686 12.5171 44.7981 11.717 44.7981V65.7998H18.5747C19.4992 61.2266 22.2292 58.5097 26.8207 57.6274C23.6892 55.9805 22.5732 54.1925 23.0977 51.7175C23.5413 49.624 25.4495 47.9368 27.504 47.822C29.8589 47.6902 31.8807 48.9696 32.6044 51.1034C33.0698 52.4789 32.9655 53.8327 32.2542 55.1214C31.5507 56.3976 30.4145 57.1358 28.9499 57.6072C33.6986 58.5113 36.4099 61.2576 37.3142 65.7874L37.3157 65.7905ZM2.13407 68.1274C2.24769 69.0253 2.26793 69.8674 2.47182 70.6629C3.26249 73.7473 5.8773 75.6516 9.2641 75.6516C21.3078 75.6563 33.3515 75.6532 45.3952 75.6532C53.1789 75.6532 60.9627 75.6532 68.7464 75.6532C70.6344 75.6532 72.32 75.1135 73.6974 73.7892C75.3115 72.2353 75.8951 70.3171 75.7488 68.1321H51.94C51.94 69.0036 51.9478 69.8348 51.9385 70.6675C51.9244 71.9081 51.1696 72.6602 49.9166 72.6618C42.6325 72.6664 35.3484 72.6664 28.0643 72.6618C26.8223 72.6618 26.0689 71.8957 26.0565 70.6536C26.0487 69.8224 26.0565 68.9927 26.0565 68.129H2.13252L2.13407 68.1274ZM70.4258 65.8215C70.4258 65.4384 70.4258 65.1283 70.4258 64.8181C70.4258 51.6074 70.4258 38.3966 70.4258 25.1859C70.4258 23.663 70.3293 23.5638 68.8305 23.5638C48.9423 23.5638 29.0526 23.5638 9.16449 23.5638C8.90146 23.5638 8.59017 23.4831 8.38628 23.5948C8.0781 23.7654 7.62518 24.0631 7.6174 24.3205C7.55358 26.2481 7.5816 28.1788 7.5816 30.1436H9.35438C9.37306 29.8924 9.40263 29.6628 9.40418 29.4333C9.41041 28.5153 9.38862 27.5973 9.41508 26.6808C9.44154 25.7937 9.84466 25.4154 10.7412 25.3704C10.9513 25.3595 11.1614 25.3673 11.3731 25.3673C29.7888 25.3673 48.2046 25.3673 66.6203 25.3673C68.348 25.3673 68.5892 25.6046 68.5892 27.3073C68.5892 39.8109 68.5892 52.313 68.5892 64.8166V65.8199H70.4274L70.4258 65.8215ZM17.2891 44.7112C17.4167 44.0692 17.4136 43.5094 17.6424 43.069C18.005 42.3681 18.7599 42.52 19.409 42.5138C20.3319 42.503 20.5202 42.3448 20.5249 41.4268C20.5358 38.7827 20.5358 36.1372 20.5249 33.4932C20.5202 32.5798 20.3195 32.3999 19.4167 32.3999C14.0564 32.3999 8.69445 32.3999 3.33409 32.3999C2.42513 32.3999 2.2259 32.5767 2.22279 33.4885C2.21189 36.1325 2.21189 38.7781 2.22279 41.4221C2.2259 42.351 2.40645 42.5123 3.33409 42.5123C7.0135 42.5138 10.6929 42.5216 14.3723 42.5061C15.0245 42.503 15.5397 42.6906 15.9552 43.2039C16.3615 43.7064 16.8113 44.1731 17.2922 44.7112H17.2891ZM34.8784 65.8168C34.8099 62.4486 31.132 59.6619 27.2005 59.9085C24.1172 60.1008 20.7911 63.2814 21.0572 65.8168H34.8784ZM28.2978 70.4086H49.6661V68.1367H28.2978V70.4086ZM9.35282 44.8337H7.62518V65.8029H9.35282V44.8337ZM27.9195 55.3865C29.4449 55.3958 30.634 54.2343 30.6371 52.7317C30.6402 51.2585 29.3997 50.0163 27.9351 50.0256C26.4954 50.0349 25.2767 51.2414 25.258 52.6774C25.2378 54.1878 26.4067 55.3772 27.9195 55.385V55.3865ZM29.7328 13.5212C30.4036 13.5351 30.9655 12.9676 30.967 12.2744C30.967 11.5812 30.4098 11.0136 29.7375 11.0245C29.0962 11.0338 28.5608 11.575 28.5437 12.2325C28.525 12.9288 29.062 13.5103 29.7328 13.5227V13.5212ZM48.2201 13.5212C48.8878 13.5351 49.4497 12.9614 49.4497 12.2697C49.4497 11.606 48.9439 11.0617 48.2964 11.0245C47.6271 10.9873 47.0435 11.5409 47.0263 12.2325C47.0092 12.9288 47.5446 13.5072 48.2201 13.5212ZM40.2481 3.65846C40.273 3.01646 39.6675 2.38375 39.0154 2.37135C38.399 2.35894 37.7951 2.91566 37.7469 3.54061C37.6971 4.17641 38.2838 4.82927 38.9376 4.86649C39.5741 4.90371 40.2232 4.30512 40.2481 3.65691V3.65846Z" fill="#00C9B7"/>
<path d="M59.235 39.9613V47.4282C59.8046 47.4282 60.3509 47.4111 60.8941 47.4313C61.8871 47.4685 62.2513 47.8003 62.2622 48.7649C62.2856 50.6506 62.2856 52.5378 62.2622 54.4235C62.2498 55.3555 61.8793 55.7029 60.9501 55.7091C59.0575 55.7231 57.1633 55.7231 55.2707 55.7091C54.3291 55.7029 53.9867 55.3586 53.9602 54.4329C53.9446 53.8885 53.9571 53.3427 53.9571 52.7425H46.4395C46.4395 53.3318 46.4535 53.901 46.4364 54.4701C46.4115 55.3152 46.0691 55.6952 45.2488 55.7029C43.2768 55.7231 41.3048 55.7215 39.3328 55.7029C38.5608 55.6952 38.1499 55.3199 38.1359 54.543C38.1032 52.5782 38.1032 50.6134 38.1344 48.6486C38.1468 47.8438 38.553 47.4809 39.3811 47.4359C39.9523 47.4049 40.5266 47.4297 41.1445 47.4297V39.9567C40.564 39.9567 39.9943 39.966 39.4262 39.9551C38.5811 39.9396 38.153 39.6093 38.139 38.806C38.1032 36.8164 38.1095 34.8237 38.1375 32.8326C38.1484 32.0836 38.6309 31.6773 39.3608 31.668C41.3064 31.6447 43.2535 31.6401 45.1975 31.668C46.0488 31.6804 46.4099 32.1006 46.4379 32.9597C46.4551 33.4823 46.4613 34.0049 46.4737 34.5291C46.4737 34.5524 46.4924 34.5756 46.5298 34.6594H53.9555C53.9555 34.0856 53.9446 33.5428 53.9586 33.0001C53.9804 32.0913 54.3478 31.6757 55.2396 31.6649C57.1587 31.6401 59.0793 31.6385 60.9984 31.6664C61.8404 31.6788 62.2498 32.1006 62.2607 32.9504C62.2856 34.8625 62.2871 36.7761 62.2607 38.6882C62.2482 39.6031 61.8607 39.9396 60.9299 39.9551C60.3852 39.9644 59.8389 39.9567 59.235 39.9567V39.9613ZM56.9299 47.4282V39.9613C56.6061 39.9613 56.3447 39.9613 56.0847 39.9613C55.7952 39.9613 55.5057 39.9675 55.2178 39.9598C54.3493 39.935 53.9898 39.5845 53.9618 38.7099C53.9446 38.1439 53.9586 37.5763 53.9586 37.0242H46.4426C46.4426 37.4538 46.4426 37.8182 46.4426 38.1826C46.4426 39.738 46.22 39.9613 44.6885 39.9629C44.2792 39.9629 43.8698 39.9629 43.4558 39.9629V47.4282C44.0177 47.4282 44.5391 47.4126 45.0589 47.4313C46.0924 47.4669 46.4224 47.8019 46.4411 48.8176C46.4504 49.3573 46.4426 49.8954 46.4426 50.4459H53.9586C53.9586 49.8675 53.9477 49.3247 53.9602 48.782C53.982 47.8096 54.3135 47.4731 55.3003 47.4328C55.845 47.4111 56.3914 47.4282 56.9314 47.4282H56.9299ZM40.4535 33.9755V37.6973H44.1562V33.9755H40.4535ZM56.245 33.9755V37.7019H59.9556V33.9755H56.245ZM44.1811 49.7372H40.4472V53.4388H44.1811V49.7372ZM56.2404 49.7217V53.4404H59.9603V49.7217H56.2404Z" fill="#00C9B7"/>
<path d="M11.454 36.3435C13.0555 36.3435 14.6571 36.3388 16.2587 36.345C17.1381 36.3481 17.6735 36.7808 17.6719 37.4662C17.6719 38.1547 17.1614 38.5672 16.2509 38.5703C12.9948 38.5781 9.73878 38.5781 6.48272 38.5703C5.57376 38.5688 5.06636 38.1516 5.06947 37.46C5.07259 36.7715 5.60177 36.3497 6.48894 36.3466C8.14343 36.3404 9.79792 36.345 11.4524 36.345L11.454 36.3435Z" fill="#00C9B7"/>
</svg>
