<svg width="64" height="61" viewBox="0 0 64 61" fill="none" xmlns="http://www.w3.org/2000/svg">
<path d="M0 8.19375C0.121634 7.74243 0.234885 7.28971 0.364907 6.84118C1.49596 2.952 5.09323 0.182767 9.15747 0.177195C22.4575 0.157693 35.7575 0.159086 49.0589 0.177195C53.0966 0.182767 56.6617 2.85727 57.8501 6.67959C59.051 10.5395 57.639 14.6599 54.3157 17.0001C54.1689 17.1032 54.0249 17.2119 53.839 17.3484C54.1284 17.5615 54.38 17.7314 54.6149 17.9237C55.2007 18.4042 55.3153 19.1634 54.9015 19.7443C54.4751 20.3433 53.7131 20.5425 53.1022 20.0856C51.5615 18.9336 49.832 18.6856 47.9586 18.6898C35.113 18.7232 22.2687 18.7372 9.42311 18.687C6.0719 18.6745 3.06182 21.1846 2.71509 24.5347C2.3432 28.1356 4.82201 31.2865 8.45564 31.7991C8.7003 31.8339 8.95056 31.8228 9.19942 31.8228C14.4534 31.8228 19.7074 31.8228 24.9615 31.8255C26.0827 31.8255 26.7636 32.6697 26.4336 33.628C26.2365 34.202 25.708 34.5363 24.9698 34.5377C21.95 34.5404 18.9301 34.5377 15.9102 34.5377C13.6551 34.5377 11.4014 34.5349 9.1463 34.5377C5.91671 34.5432 3.02267 37.1718 2.71649 40.2711C2.32363 44.255 5.10722 47.0284 8.00126 47.5313C8.54652 47.626 9.10995 47.6567 9.66359 47.6581C14.6897 47.6678 19.7158 47.6609 24.7434 47.6692C25.0481 47.6692 25.3725 47.6901 25.6535 47.7946C26.2128 48.0021 26.4924 48.4465 26.4798 49.0455C26.4672 49.618 26.1792 50.0303 25.6479 50.2323C25.4047 50.3242 25.125 50.3535 24.8608 50.3535C19.6683 50.3604 14.4772 50.3702 9.2847 50.3535C5.06947 50.3409 1.42325 47.5452 0.307581 43.5098C0.199928 43.1184 0.10346 42.7242 0.00139945 42.3327C0.00139945 41.5081 0.00139945 40.6835 0.00139945 39.8588C0.0405459 39.7669 0.102064 39.6791 0.117443 39.5844C0.349526 38.0675 0.919945 36.6759 1.9 35.5044C2.61722 34.6463 3.48404 33.9108 4.30472 33.0987C4.20965 33.0277 4.05166 32.9079 3.88948 32.7909C2.09993 31.501 0.907361 29.7946 0.307581 27.6787C0.197132 27.2886 0.10346 26.893 0.00139945 26.5016C0.00139945 25.677 0.00139945 24.8523 0.00139945 24.0277C0.0405459 23.9357 0.102064 23.848 0.117443 23.7533C0.349526 22.2363 0.919945 20.8447 1.9 19.6732C2.61862 18.8152 3.48404 18.0811 4.30612 17.269C4.20965 17.1979 4.05026 17.0767 3.88948 16.9597C2.10133 15.6684 0.907362 13.9648 0.30898 11.8475C0.198532 11.4575 0.104859 11.0619 0.00279891 10.6705C0.00279891 9.84582 0.00279891 9.02118 0.00279891 8.19654L0 8.19375ZM29.1753 15.9888C35.8358 15.9888 42.4949 15.993 49.1554 15.9874C53.2616 15.9833 56.41 11.9367 55.4188 7.95277C54.654 4.88405 52.1235 2.86981 48.9457 2.86702C35.7295 2.85727 22.5134 2.86145 9.29728 2.86702C8.88764 2.86702 8.47381 2.91578 8.06697 2.97986C5.21487 3.427 2.31524 6.18369 2.71369 10.2456C3.02127 13.3742 5.91391 15.986 9.19662 15.9874C15.8571 15.9902 22.5162 15.9874 29.1767 15.9874L29.1753 15.9888Z" fill="#00C9B7"/>
<path d="M63.5571 36.3067C63.5571 38.0173 63.5711 39.7292 63.5544 41.4398C63.5124 45.797 61.8277 49.5204 59.0539 52.7967C56.1235 56.2568 52.4829 58.7893 48.3851 60.6823C48.0174 60.8523 47.4456 60.8955 47.0919 60.7325C42.1301 58.4438 37.8211 55.3236 34.7398 50.7351C32.7866 47.828 31.7479 44.6227 31.7744 41.0916C31.8024 37.5464 31.78 33.9999 31.78 30.4548C31.78 29.4658 32.0149 29.1287 32.939 28.8167C37.6268 27.2357 42.3104 25.6463 47.008 24.0931C47.4064 23.9608 47.9223 23.9496 48.318 24.0806C53.0128 25.631 57.695 27.2162 62.3786 28.7986C63.3181 29.1162 63.5557 29.4644 63.5571 30.4297C63.5571 32.3883 63.5571 34.3468 63.5571 36.3039V36.3067ZM60.8616 37.0199H60.891C60.891 35.2271 60.8798 33.4344 60.8994 31.643C60.9036 31.2516 60.7861 31.0677 60.4045 30.941C56.3179 29.5856 52.2396 28.2038 48.153 26.8526C47.8678 26.7579 47.4959 26.7579 47.2107 26.8526C43.1241 28.2038 39.0473 29.5842 34.9621 30.9368C34.5538 31.0719 34.435 31.26 34.4364 31.6778C34.4546 34.7675 34.4587 37.8585 34.4434 40.9481C34.428 43.8496 35.2221 46.5116 36.7922 48.9396C39.4108 52.9903 43.1395 55.7568 47.3743 57.9215C47.5518 58.012 47.865 57.9869 48.051 57.8922C51.4595 56.1371 54.5451 53.9529 57.0239 51.0012C59.2944 48.2974 60.7806 45.2538 60.8574 41.6557C60.891 40.1109 60.863 38.5661 60.863 37.0213L60.8616 37.0199Z" fill="#00C9B7"/>
<path d="M15.8877 25.2423C15.8919 27.4572 14.1443 29.2151 11.9353 29.2193C9.71378 29.2234 7.94799 27.4808 7.94519 25.2813C7.9424 23.0637 9.68581 21.31 11.8962 21.3058C14.1219 21.3016 15.8835 23.04 15.8877 25.2423ZM11.9451 23.9789C11.2041 23.965 10.6421 24.4985 10.6281 25.2326C10.6141 25.9709 11.151 26.5308 11.885 26.5448C12.6246 26.5587 13.1866 26.0238 13.2006 25.2911C13.2146 24.5528 12.6791 23.9928 11.9437 23.9789H11.9451Z" fill="#00C9B7"/>
<path d="M11.9287 45.0504C9.70989 45.0532 7.9483 43.3064 7.9469 41.1042C7.9455 38.8893 9.69171 37.1384 11.9063 37.137C14.1278 37.1356 15.8866 38.8768 15.8894 41.0819C15.8922 43.2939 14.1418 45.0491 11.9287 45.0504ZM13.2037 41.0665C13.1911 40.3338 12.6305 39.7975 11.8895 39.8115C11.1541 39.824 10.6172 40.3826 10.6298 41.1209C10.6424 41.8536 11.2044 42.3899 11.944 42.3773C12.678 42.3634 13.2163 41.8048 13.2037 41.0679V41.0665Z" fill="#00C9B7"/>
<path d="M25.1458 29.2193C22.941 29.2165 21.1668 27.4418 21.178 25.2479C21.1878 23.047 22.9536 21.3044 25.1724 21.3058C27.366 21.3072 29.1639 23.0985 29.1555 25.2758C29.1471 27.4544 27.3506 29.222 25.1458 29.2193ZM25.1458 23.9775C24.4314 23.9831 23.833 24.5779 23.8428 25.2744C23.8512 25.9764 24.451 26.5517 25.1696 26.5462C25.905 26.5406 26.4558 25.9834 26.4502 25.2507C26.4446 24.5222 25.8812 23.9719 25.1458 23.9775Z" fill="#00C9B7"/>
<path d="M25.1486 37.137C27.352 37.1342 29.1485 38.9033 29.1555 41.0819C29.1625 43.2577 27.3646 45.0491 25.171 45.0504C22.9564 45.0518 21.1878 43.3051 21.178 41.1042C21.1682 38.9102 22.9396 37.1398 25.1486 37.137ZM25.1779 39.8101C24.4579 39.8003 23.8554 40.3673 23.8414 41.0707C23.8274 41.7658 24.423 42.3676 25.1346 42.3773C25.8714 42.3871 26.439 41.8424 26.4488 41.1139C26.4586 40.3798 25.9133 39.8198 25.1779 39.8101Z" fill="#00C9B7"/>
<path d="M11.9465 5.4745C14.1541 5.48007 15.8933 7.24079 15.8877 9.46119C15.8822 11.6593 14.1136 13.3949 11.885 13.388C9.68024 13.3824 7.93822 11.6189 7.94521 9.3999C7.9508 7.20179 9.71799 5.46893 11.9465 5.4745ZM10.6337 9.33861C10.589 10.0838 11.0937 10.6647 11.8235 10.7093C12.5701 10.7539 13.1545 10.251 13.1978 9.52387C13.2426 8.77724 12.7393 8.19776 12.0081 8.15319C11.2601 8.10722 10.6771 8.61148 10.6337 9.33861Z" fill="#00C9B7"/>
<path d="M25.2395 5.47459C27.3828 5.48852 29.1667 7.29799 29.1555 9.44874C29.1443 11.6538 27.3324 13.4034 25.0801 13.3881C22.927 13.3727 21.1655 11.5772 21.178 9.41252C21.192 7.18795 22.9746 5.45927 25.2395 5.47459ZM26.4502 9.4362C26.453 8.7035 25.8994 8.1491 25.1626 8.14631C24.4454 8.14352 23.8456 8.723 23.8414 9.42367C23.8372 10.1229 24.4356 10.7122 25.1514 10.7136C25.8868 10.7163 26.4474 10.1647 26.4502 9.43481V9.4362Z" fill="#00C9B7"/>
<path d="M46.4623 44.3707C49.1662 41.6739 51.796 39.0258 54.4663 36.4154C54.7865 36.102 55.3192 35.8262 55.7484 35.8345C56.7424 35.854 57.2583 37.006 56.7215 37.8474C56.6012 38.0354 56.4362 38.1984 56.2769 38.3586C53.3856 41.2434 50.4916 44.1255 47.5975 47.0076C46.6119 47.9882 45.8933 47.9436 45.032 46.8669C43.448 44.8875 41.8514 42.9178 40.2757 40.9328C40.0521 40.65 39.8353 40.3213 39.7487 39.9786C39.6005 39.395 39.9556 38.8071 40.4952 38.5648C41.0363 38.3224 41.6948 38.4617 42.1114 38.9701C43.2089 40.3088 44.2841 41.6655 45.369 43.0153C45.7157 43.4471 46.0652 43.8762 46.4623 44.3679V44.3707Z" fill="#00C9B7"/>
</svg>
