<svg width="71" height="71" viewBox="0 0 71 71" fill="none" xmlns="http://www.w3.org/2000/svg">
<path d="M0 68.4413C0 63.588 0 58.733 0 53.8797C0.0515462 53.8147 0.116839 53.7565 0.151203 53.6828C0.682129 52.529 1.55497 51.9452 2.85394 51.9504C7.18725 51.9675 11.5189 51.9538 15.8522 51.9589C17.4415 51.9607 18.5687 53.0939 18.5772 54.6843C18.5841 55.8964 18.5772 57.1101 18.5772 58.3221C18.5772 58.8152 18.5772 59.3082 18.5772 59.779H30.6803V47.6672C29.2473 47.6672 27.8556 47.6672 26.4638 47.6672C25.4655 47.6672 24.5635 47.4052 23.8401 46.6777C23.1563 45.9878 22.8831 45.1369 22.8796 44.1868C22.8745 43.0741 22.8796 41.9613 22.8796 40.8708C22.048 40.6928 21.5102 40.775 21.0429 41.547C20.3367 42.7146 18.8625 43.0998 17.5876 42.6649C16.3161 42.2318 15.4243 40.9855 15.4536 39.6845C15.4845 38.3612 16.4072 37.1354 17.6649 36.7537C18.945 36.3651 20.3487 36.8512 21.1271 37.9537C21.6855 38.7429 21.8934 38.8165 22.8315 38.5529V34.3416C22.5154 34.3416 22.2456 34.3416 21.9741 34.3416C17.8711 34.3416 13.768 34.345 9.66319 34.3399C8.61165 34.3399 8.25943 33.9786 8.25771 32.9464C8.25771 28.4611 8.25771 23.9759 8.25771 19.4907C8.25771 19.2476 8.25771 19.0045 8.25771 18.7083C6.55325 18.7083 4.92782 18.6467 3.30755 18.7254C1.67353 18.8042 0.573881 18.1793 0 16.6489V2.08557C0.446734 1.1851 1.08419 0.491775 2.06357 0.163086H16.5137C18.048 0.736579 18.6718 1.83563 18.5944 3.46538C18.5154 5.15505 18.5772 6.85327 18.5772 8.54636C18.5772 9.51702 18.2147 10.0203 17.5274 10.0066C16.8625 9.99293 16.5154 9.50675 16.5137 8.5806C16.5137 6.79506 16.5154 5.00953 16.5137 3.224C16.5137 2.43994 16.3127 2.22595 15.5635 2.22424C11.3677 2.22081 7.17008 2.22595 2.97423 2.21739C2.33849 2.21739 2.05841 2.48616 2.05841 3.12471C2.067 7.33603 2.06528 11.5491 2.05841 15.7604C2.05841 16.3544 2.31099 16.6506 2.92095 16.6506C7.1632 16.6472 11.4055 16.6455 15.6477 16.6506C16.2542 16.6506 16.524 16.3647 16.5154 15.7672C16.5051 14.9883 16.5051 14.2111 16.5154 13.4322C16.5257 12.7577 16.9536 12.2972 17.5429 12.2972C18.1322 12.2972 18.5635 12.7577 18.5721 13.4322C18.5841 14.3481 18.6443 15.2708 18.548 16.1764C18.4896 16.7139 18.2594 17.2874 17.9467 17.7325C17.4639 18.419 16.7216 18.7186 15.8573 18.7135C14.0309 18.6998 12.2044 18.71 10.3574 18.71V32.1726H22.8779C22.8779 30.5377 22.957 28.937 22.8607 27.3467C22.6855 24.4381 24.158 22.7827 27.249 22.9967C28.3813 23.0754 29.5239 23.0087 30.7215 23.0087C30.7215 21.8685 30.6975 20.8191 30.7318 19.7714C30.7473 19.2647 30.6184 18.9737 30.1408 18.698C28.8367 17.9448 28.3453 16.3133 28.9123 14.9301C29.4724 13.5623 30.9105 12.7851 32.3641 13.0624C33.6459 13.3072 34.5858 14.2419 34.8315 15.5122C35.0806 16.8029 34.5342 18.0253 33.4037 18.7494C33.2061 18.8761 32.8968 19.0524 32.8916 19.215C32.8487 20.463 32.8676 21.7127 32.8676 22.9607H38.4311C38.4311 22.6474 38.4311 22.3787 38.4311 22.1082C38.4311 18.0338 38.4311 13.9595 38.4311 9.88508C38.4311 8.73638 38.7593 8.40769 39.8864 8.40769C43.6235 8.40769 47.3624 8.40769 51.0995 8.40769H51.8847C51.8847 6.70776 51.9465 5.08314 51.8675 3.46709C51.7867 1.83563 52.4139 0.738291 53.9482 0.164798H68.3984C69.5874 0.642423 70.4516 1.39909 70.4568 2.78061C70.4722 7.22305 70.4688 11.6638 70.4568 16.1062C70.4533 17.5271 69.297 18.6998 67.8846 18.7049C63.4121 18.7186 58.9396 18.7186 54.4671 18.7049C53.0531 18.7015 51.9001 17.5305 51.8881 16.113C51.8726 14.4645 51.8847 12.8159 51.883 11.1673C51.883 10.9465 51.8623 10.7273 51.852 10.5116H40.615V23.0069C41.828 23.0069 42.9947 22.995 44.1596 23.0104C46.1527 23.0343 47.5239 24.3799 47.5806 26.3674C47.6012 27.0539 47.584 27.7404 47.584 28.4286C47.584 28.8532 47.584 29.276 47.584 29.7399C49.0926 29.7399 50.4912 29.7297 51.8881 29.7468C52.2713 29.7519 52.4912 29.6458 52.694 29.288C53.4689 27.9287 54.9878 27.3723 56.4053 27.8722C57.742 28.343 58.5479 29.5585 58.4843 31.0102C58.4293 32.2821 57.4517 33.4788 56.2042 33.8006C54.8589 34.1481 53.4912 33.6003 52.7421 32.4345C52.6063 32.2239 52.4001 31.9055 52.2197 31.9004C50.694 31.8576 49.1665 31.8764 47.6424 31.8764V35.3276H48.4483C52.5771 35.3276 56.7043 35.3276 60.8331 35.3276C61.907 35.3276 62.2059 35.6358 62.2059 36.7211C62.2059 41.5299 62.2059 46.337 62.2059 51.1458V51.9589C64.0118 51.9589 65.7128 52.0411 67.4035 51.9367C69.1561 51.8271 70.5358 53.1624 70.4911 55.0455C70.3966 59.0959 70.4173 63.1515 70.4843 67.2019C70.5118 68.8333 69.9293 69.929 68.3984 70.5059H53.9482C52.4156 69.9307 51.7919 68.8368 51.8658 67.2036C51.9465 65.4454 51.8813 63.6787 51.8847 61.9172C51.8847 61.1297 52.2833 60.6435 52.9105 60.6401C53.5393 60.6367 53.9431 61.1246 53.9448 61.9103C53.9483 63.7866 53.9534 65.6646 53.9414 67.5408C53.9379 68.1777 54.2197 68.4516 54.8555 68.4499C59.0737 68.4413 63.2936 68.443 67.5118 68.4499C68.1097 68.4499 68.3984 68.1914 68.3984 67.5854C68.3949 63.3501 68.3949 59.1165 68.3984 54.8812C68.3984 54.3214 68.1561 54.0218 67.5788 54.0218C63.3142 54.0218 59.0496 54.0218 54.785 54.0218C54.2163 54.0218 53.9414 54.2923 53.9448 54.8606C53.95 55.6396 53.9517 56.4168 53.9448 57.1957C53.9362 57.9181 53.505 58.3906 52.8898 58.3718C52.2971 58.3547 51.895 57.8993 51.8864 57.2128C51.8778 56.3432 51.8761 55.4735 51.8864 54.6039C51.9036 53.1094 53.0496 51.9778 54.5599 51.9658C55.7747 51.9572 56.9912 51.9641 58.206 51.9641C58.8383 51.9641 59.4706 51.9641 60.0874 51.9641V37.4504H47.584C47.584 39.7221 47.5926 41.9408 47.5806 44.1594C47.572 45.7977 46.7318 47.0474 45.3126 47.4737C44.8383 47.6158 44.3229 47.6535 43.8246 47.6654C42.7559 47.6928 41.6871 47.674 40.5669 47.674C40.5669 49.0247 40.5875 50.2813 40.5565 51.5344C40.5445 52.0035 40.6906 52.2534 41.1064 52.4931C42.3125 53.1864 42.8469 54.573 42.5084 55.9203C42.1854 57.2008 40.962 58.1732 39.5892 58.2383C38.3246 58.2982 37.0703 57.4525 36.5961 56.2199C36.1133 54.9599 36.4328 53.4569 37.5858 52.7362C38.3744 52.2431 38.4861 51.685 38.4414 50.8941C38.3899 50.0039 38.4328 49.1086 38.426 48.2167C38.426 48.0438 38.3882 47.8726 38.3693 47.7271H32.859C32.859 48.0489 32.859 48.3211 32.859 48.5916C32.859 52.505 32.859 56.4202 32.859 60.3337C32.859 61.6467 32.5411 61.9702 31.249 61.9702C27.2817 61.9702 23.3161 61.9702 19.3487 61.9702C19.1065 61.9702 18.8659 61.9702 18.579 61.9702C18.579 63.7797 18.5171 65.4968 18.5961 67.2053C18.6735 68.8385 18.0446 69.9324 16.5154 70.5076H2.06529C1.05326 70.1447 0.360825 69.4616 0.00171988 68.4464L0 68.4413ZM35.1579 45.5358C38.0926 45.5358 41.0256 45.5392 43.9603 45.5358C45.0995 45.5341 45.4431 45.1934 45.4448 44.0721C45.4483 38.2602 45.4483 32.4482 45.4448 26.6362C45.4448 25.4584 45.1201 25.1417 43.9311 25.1417C38.1322 25.1417 32.3332 25.1417 26.5325 25.1417C25.3384 25.1417 25.0137 25.4567 25.0137 26.6311C25.0119 32.4208 25.0119 38.2105 25.0137 43.9985C25.0137 45.2191 25.3332 45.5358 26.5618 45.5375C29.4277 45.541 32.292 45.5375 35.1579 45.5375V45.5358ZM61.1733 2.22253C59.0874 2.22253 57.0015 2.2191 54.9156 2.22253C54.1458 2.22253 53.9465 2.42453 53.9448 3.20003C53.9414 7.34117 53.9414 11.484 53.9448 15.6251C53.9448 16.4486 54.1355 16.6455 54.9414 16.6455C59.0908 16.6489 63.2386 16.6489 67.3881 16.6455C68.1973 16.6455 68.3932 16.4469 68.3932 15.632C68.3949 11.5131 68.3949 7.39424 68.3932 3.27536C68.3932 2.40741 68.2128 2.22253 67.3606 2.22081C65.297 2.21739 63.2351 2.22081 61.1716 2.22081L61.1733 2.22253ZM9.28691 54.015C7.22335 54.015 5.1615 54.0132 3.09793 54.015C2.24226 54.015 2.06357 54.1981 2.06185 55.0661C2.06185 59.185 2.06013 63.3038 2.06185 67.4227C2.06185 68.2427 2.2543 68.4396 3.06358 68.4396C7.21304 68.443 11.3608 68.443 15.5103 68.4396C16.3161 68.4396 16.512 68.241 16.512 67.4227C16.5137 63.3038 16.5137 59.185 16.512 55.0661C16.512 54.1998 16.3298 54.0167 15.4759 54.015C13.4123 54.0115 11.3505 54.015 9.28691 54.015ZM56.4036 30.8202C56.4173 30.286 55.9568 29.8221 55.4036 29.8135C54.8452 29.805 54.3744 30.2398 54.3606 30.7774C54.3469 31.3115 54.8056 31.7754 55.3589 31.7857C55.9156 31.7959 56.3881 31.3594 56.4036 30.8219V30.8202ZM31.8109 17.0837C32.3916 17.0734 32.7868 16.6626 32.7765 16.0771C32.7662 15.4968 32.3555 15.1047 31.7679 15.115C31.1854 15.1253 30.7937 15.5344 30.804 16.1216C30.8143 16.7037 31.225 17.0957 31.8126 17.0837H31.8109ZM18.6047 40.7133C19.1855 40.7014 19.5772 40.2888 19.5652 39.7016C19.5532 39.1213 19.1408 38.7309 18.5515 38.7446C17.969 38.7566 17.579 39.1675 17.591 39.7547C17.603 40.335 18.0154 40.7253 18.6047 40.7133ZM39.4689 54.1314C38.8865 54.1434 38.4964 54.5542 38.5102 55.1431C38.5222 55.7235 38.9346 56.1138 39.5239 56.1018C40.1047 56.0898 40.4964 55.6755 40.4844 55.09C40.4723 54.5097 40.06 54.1211 39.4707 54.1331L39.4689 54.1314Z" fill="#00C9B7"/>
<path d="M61.1837 66.3786C60.0153 66.3786 58.847 66.3854 57.6786 66.3769C56.6442 66.3683 56.0171 65.7417 56.0136 64.7043C56.0068 62.371 56.005 60.0376 56.0136 57.7043C56.0171 56.7131 56.6545 56.0831 57.6528 56.0797C59.9896 56.0711 62.3263 56.0711 64.6648 56.0797C65.7009 56.0831 66.3246 56.7096 66.328 57.7488C66.3366 60.0582 66.3349 62.3693 66.328 64.6786C66.3246 65.7571 65.7043 66.3683 64.6201 66.3751C63.4741 66.382 62.3281 66.3751 61.1837 66.3751V66.3786ZM64.2387 58.1853H58.1305V64.2832H64.2387V58.1853Z" fill="#00C9B7"/>
<path d="M4.13083 9.36639C4.13083 8.24508 4.12568 7.12548 4.13083 6.00417C4.1377 4.91539 4.74594 4.29054 5.8181 4.28712C8.13252 4.28027 10.447 4.28027 12.7614 4.28712C13.8335 4.29054 14.4452 4.91539 14.4487 6.00417C14.4538 8.2913 14.4555 10.5784 14.4487 12.8655C14.4452 13.9817 13.8301 14.5826 12.6944 14.5843C10.4263 14.5895 8.1583 14.5895 5.88855 14.5843C4.72876 14.5826 4.13599 13.9732 4.13083 12.7971C4.12739 11.6535 4.13083 10.5099 4.13083 9.36639ZM6.22362 12.4787H12.3318V6.3808H6.22362V12.4804V12.4787Z" fill="#00C9B7"/>
<path d="M29.1788 29.259V41.3674H41.2629V29.259C40.8025 29.259 40.3506 29.2676 39.8987 29.2573C39.086 29.2368 38.5654 28.8002 38.5808 28.1651C38.5963 27.5505 39.0963 27.1431 39.8746 27.1294C40.4245 27.1191 40.9743 27.1225 41.5258 27.1294C42.8282 27.1448 43.4485 27.7645 43.4519 29.0861C43.4588 32.2669 43.4537 35.4493 43.4537 38.6301C43.4537 39.6144 43.4605 40.5988 43.4519 41.5831C43.4399 42.8979 42.8214 43.5416 41.5224 43.545C37.3265 43.5553 33.1307 43.5553 28.9365 43.545C27.6358 43.5416 27.0087 42.8979 27.007 41.5848C27.0001 37.4197 27.0001 33.2546 27.007 29.0878C27.0087 27.7645 27.6272 27.1362 28.9314 27.1311C30.9262 27.1225 32.9211 27.1088 34.9142 27.1465C35.2887 27.1534 35.7492 27.3091 36.0018 27.5642C36.1994 27.7628 36.2973 28.3294 36.1547 28.5366C35.9313 28.8636 35.4812 29.1922 35.1015 29.2248C34.031 29.3172 32.9485 29.259 31.8712 29.259C31.0018 29.259 30.1307 29.259 29.1754 29.259H29.1788Z" fill="#00C9B7"/>
<path d="M66.3298 9.38351C66.3298 10.5493 66.3366 11.7169 66.3298 12.8827C66.3229 13.9646 65.7078 14.5809 64.627 14.5843C62.3126 14.5912 59.9982 14.5912 57.6838 14.5843C56.6477 14.5809 56.0171 13.9509 56.0136 12.9186C56.0051 10.5853 56.0051 8.25193 56.0136 5.92029C56.0171 4.92738 56.6528 4.29397 57.6477 4.28883C60.0068 4.27856 62.3676 4.27856 64.7284 4.28883C65.6854 4.29397 66.316 4.92738 66.328 5.88263C66.3435 7.04845 66.3315 8.21598 66.3315 9.38179L66.3298 9.38351ZM64.237 6.39278H58.1288V12.4924H64.237V6.39278Z" fill="#00C9B7"/>
<path d="M4.13043 61.2102C4.13043 60.0444 4.12184 58.8769 4.13215 57.711C4.14246 56.7181 4.77132 56.0847 5.76616 56.0813C8.12526 56.0727 10.4861 56.071 12.8469 56.0813C13.8039 56.0864 14.4397 56.7198 14.4448 57.6768C14.4569 60.0324 14.4551 62.388 14.4448 64.7453C14.4414 65.7417 13.8091 66.3716 12.8108 66.3768C10.4517 66.3871 8.0909 66.3871 5.73009 66.3768C4.7782 66.3716 4.14246 65.7314 4.13215 64.7796C4.1184 63.5898 4.12871 62.4 4.12871 61.2119L4.13043 61.2102ZM12.3727 58.1938H6.23867V64.2677H12.3727V58.1938Z" fill="#00C9B7"/>
</svg>
