<svg width="73" height="67" viewBox="0 0 73 67" fill="none" xmlns="http://www.w3.org/2000/svg">
<path d="M0.00326908 41.2696C0.375581 40.6287 0.958538 40.3906 1.67213 40.2716C4.77637 39.7546 7.8757 39.2083 10.9718 38.6474C12.5492 38.362 13.0211 38.6506 13.3248 40.1982C13.4277 40.7233 13.5257 41.2484 13.6335 41.8143C14.5708 41.2256 15.4493 40.6075 16.3882 40.0955C20.2828 37.9771 24.406 37.3982 28.7382 38.3783C30.5883 38.7974 32.4074 39.5019 34.3441 39.2573C36.1371 39.0306 37.9137 38.6816 39.6969 38.3832C41.712 38.044 43.7156 37.6069 45.7437 37.3802C48.3924 37.0851 50.6964 37.9722 52.6217 39.8166C52.8242 40.0107 53.0005 40.2324 53.2095 40.4624C55.8566 38.4875 58.4366 36.5192 61.0656 34.6177C62.2201 33.7828 63.404 32.9299 64.6957 32.3608C67.0863 31.3073 70.3457 32.2222 72.0211 34.2149C72.5224 34.8118 72.5208 35.4608 72.0031 36.0642C71.8349 36.2599 71.6422 36.4344 71.4561 36.6154C64.8427 43.083 58.2635 49.5865 51.5946 55.997C49.5893 57.9246 46.988 58.8541 44.2937 59.4673C42.13 59.9597 39.9549 59.8733 37.7651 59.6793C34.9287 59.4281 32.0858 59.252 29.2461 59.0498C27.1575 58.9014 25.0674 58.7562 22.9788 58.6176C21.6725 58.5312 20.5278 58.9536 19.5153 59.7608C18.8164 60.3185 18.1094 60.8681 17.4448 61.4649C17.2831 61.6101 17.2439 61.9199 17.2047 62.1629C17.177 62.3407 17.2472 62.5331 17.2668 62.7206C17.3762 63.7513 17.0578 64.2372 16.047 64.4215C13.1599 64.9499 10.2663 65.4505 7.37601 65.9626C6.93675 66.0408 6.4975 66.1142 6.05824 66.1974C4.83679 66.4306 4.2277 66.0327 4.00562 64.8047C3.64801 62.8201 3.31978 60.8289 2.97196 58.8427C2.02485 53.4122 1.07284 47.9835 0.119202 42.5547C0.109404 42.4959 0.0408236 42.447 0 42.3932V41.2631L0.00326908 41.2696ZM52.0175 43.6505C51.2141 41.2093 48.3091 39.5753 45.5739 40.0351C42.7946 40.5015 40.0186 40.9924 37.2475 41.5061C34.9352 41.935 32.6361 42.1143 30.3254 41.511C29.2134 41.2207 28.103 40.8668 26.9697 40.7217C22.3828 40.1313 18.3233 41.343 14.8043 44.3795C14.2703 44.841 14.2066 45.2715 14.3177 45.8896C14.8859 49.0288 15.4248 52.1729 15.9784 55.3137C16.1743 56.4243 16.3817 57.5332 16.5875 58.6584C16.7083 58.616 16.7328 58.6127 16.7508 58.5997C17.0643 58.3518 17.3778 58.1056 17.6881 57.8528C19.468 56.3949 21.4994 55.7948 23.7937 56.01C25.4576 56.1666 27.1265 56.2612 28.7921 56.3851C31.702 56.602 34.6119 56.8238 37.5218 57.0374C39.5385 57.1858 41.5536 57.4092 43.5637 56.9461C46.2418 56.328 48.6618 55.2762 50.6654 53.2965C56.6077 47.4208 62.6006 41.5958 68.5739 35.7511C68.7389 35.5897 68.8924 35.4201 69.054 35.2505C67.8848 34.3438 65.9743 34.3405 64.6091 35.2749C63.5804 35.9794 62.5957 36.7459 61.5964 37.4911C59.2612 39.2344 56.9278 40.981 54.5959 42.7259C54.7249 43.1482 54.8572 43.5233 54.9535 43.9082C55.2818 45.2372 54.8572 45.852 53.5051 46.0673C52.5776 46.2141 51.6533 46.3869 50.7291 46.55C46.588 47.2773 42.4501 48.0128 38.3056 48.7271C37.3438 48.8934 36.6858 48.458 36.5486 47.6475C36.4245 46.9153 36.9454 46.2793 37.8631 46.1146C40.1051 45.7134 42.3521 45.3367 44.5974 44.9453C47.0697 44.5148 49.5403 44.0827 52.0175 43.6489V43.6505ZM2.83317 42.7536C4.04481 49.6713 5.24829 56.54 6.45993 63.4512C9.17226 62.975 11.7948 62.5151 14.4859 62.0439C13.2693 55.1001 12.0691 48.2509 10.8624 41.3528C8.15167 41.8257 5.51935 42.2856 2.83479 42.7536H2.83317Z" fill="#00C9B7"/>
<path d="M39.4488 0.163087C49.2252 0.159825 57.1287 8.05759 57.1221 17.8226C57.1156 27.5582 49.2268 35.4576 39.4912 35.4772C29.736 35.4951 21.7787 27.568 21.7754 17.8275C21.7721 8.05596 29.6642 0.167979 39.4488 0.164718V0.163087ZM24.4175 17.8568C24.4649 26.1982 31.1485 32.8435 39.4732 32.8239C47.798 32.806 54.5045 26.0987 54.4898 17.8063C54.4735 9.50734 47.7784 2.80818 39.4635 2.77067C31.1861 2.73316 24.3701 9.56768 24.4175 17.8552V17.8568Z" fill="#00C9B7"/>
<path d="M39.7911 17.94C41.8274 17.94 43.7314 17.9285 45.6355 17.9449C46.5074 17.953 47.0071 18.364 47.0904 19.0636C47.1916 19.9213 46.6626 20.5215 45.7155 20.5345C43.9045 20.559 42.092 20.5459 40.281 20.5443C39.6932 20.5443 39.1037 20.5606 38.5174 20.5247C37.7255 20.4742 37.1915 19.954 37.1866 19.163C37.1686 15.9684 37.1703 12.7721 37.1899 9.57743C37.1947 8.87131 37.7173 8.38534 38.3868 8.34947C39.1216 8.31033 39.6915 8.72454 39.7307 9.48121C39.7993 10.7923 39.783 12.11 39.7895 13.4244C39.7977 14.8986 39.7911 16.3728 39.7911 17.94Z" fill="#00C9B7"/>
</svg>
