<svg width="60" height="68" viewBox="0 0 60 68" fill="none" xmlns="http://www.w3.org/2000/svg">
<path d="M11.2745 43.4329C14.6954 41.3455 18.0799 39.2671 21.4844 37.2232C21.9177 36.9625 21.7817 36.7054 21.6856 36.3849C20.4438 32.2934 22.2512 28.0009 26.0672 26.0928C26.8033 25.7253 27.6245 25.5098 28.4276 25.3016C28.7901 25.2075 28.8989 25.0808 28.8989 24.7241C28.888 20.9078 28.8844 17.0914 28.9025 13.2733C28.9043 12.8207 28.7031 12.7392 28.3242 12.6379C25.4291 11.8648 23.4368 9.10032 23.6199 6.15298C23.803 3.20021 26.0564 0.709088 28.9641 0.242004C32.2635 -0.288445 35.4976 1.9112 36.1883 5.15545C36.8953 8.47392 34.9048 11.767 31.6236 12.636C31.1812 12.7537 31.0507 12.9058 31.0525 13.3457C31.0688 17.1168 31.0616 20.8897 31.0598 24.6608C31.0598 24.9649 31.0362 25.2202 31.4659 25.2872C36.4856 26.0693 40.0496 31.3937 38.1643 36.7669C38.1498 36.8068 38.1552 36.8538 38.1461 36.9697C41.6359 39.1024 45.1546 41.2531 48.7095 43.4256C50.1507 41.8306 51.9074 41.0105 54.0592 41.1391C55.4859 41.2242 56.7349 41.7528 57.8009 42.6924C60.1757 44.7888 60.6597 48.2232 58.9684 50.8646C57.3096 53.4534 54.0084 54.4854 51.1695 53.305C48.7132 52.2839 46.4399 49.3836 47.5964 45.3392C44.0904 43.2065 40.5717 41.0648 37.0566 38.9267C33.3875 43.7098 26.5476 43.661 22.8857 38.9213C19.3978 41.0576 15.9027 43.1975 12.3586 45.3682C13.0058 47.2963 12.8154 49.1447 11.7549 50.8772C10.9446 52.2006 9.77169 53.0914 8.30149 53.5657C5.34294 54.5198 2.13423 53.1746 0.714786 50.4101C-0.708287 47.6402 0.0712298 44.2928 2.59469 42.4245C5.01845 40.6303 8.61691 40.5941 11.2763 43.4347L11.2745 43.4329ZM36.4874 33.863C36.5382 30.3672 33.6086 27.3764 30.0718 27.3148C26.5223 27.2533 23.5202 30.1734 23.4658 33.7399C23.4114 37.2775 26.3664 40.2936 29.9159 40.3226C33.4745 40.3515 36.4366 37.4404 36.4874 33.863ZM29.954 10.6645C32.2617 10.6736 34.0908 8.87945 34.1235 6.5748C34.1543 4.28645 32.2599 2.37285 29.9666 2.38009C27.6988 2.38552 25.8207 4.26835 25.8298 6.52773C25.837 8.82695 27.6607 10.6555 29.9558 10.6645H29.954ZM10.466 47.5189C10.495 45.2125 8.69849 43.3441 6.41614 43.3061C4.12653 43.2681 2.19587 45.1437 2.1723 47.4284C2.14873 49.6606 4.00145 51.5634 6.22217 51.5869C8.59517 51.6123 10.437 49.8471 10.466 47.5189ZM53.6151 51.5869C55.9028 51.5815 57.7556 49.753 57.7809 47.4719C57.8063 45.2107 55.8702 43.2898 53.5824 43.3061C51.2964 43.3206 49.4782 45.1727 49.4854 47.4737C49.4927 49.7856 51.3055 51.5923 53.6151 51.5869Z" fill="#00C9B7"/>
<path d="M25.9458 56.3085C23.9226 52.8108 21.9593 49.4145 19.9942 46.0182C19.8583 45.7846 19.7223 45.5511 19.5863 45.3157C19.0715 44.4178 19.1241 43.7968 19.7477 43.4239C20.3786 43.0473 20.9641 43.3062 21.4753 44.1897C23.3407 47.4104 25.2043 50.6329 27.0697 53.8536C27.2963 54.2429 27.4468 54.7751 27.7876 54.9688C28.0704 55.1299 28.5816 54.8385 28.9913 54.8439C29.8651 54.8548 30.7516 54.8512 31.6072 55.0014C32.0659 55.0811 32.2345 54.9924 32.4484 54.6285C34.4661 51.1833 36.5019 47.7489 38.5323 44.3128C38.6465 44.1191 38.748 43.9091 38.8966 43.7443C39.2918 43.3062 39.7722 43.1795 40.2925 43.4999C40.8001 43.8131 40.9578 44.2856 40.7475 44.845C40.6533 45.0949 40.4974 45.3248 40.3614 45.5583C38.3872 48.9257 36.4185 52.2949 34.4262 55.6513C34.1851 56.0569 34.1488 56.2922 34.5223 56.6724C36.4602 58.6458 36.8898 61.4845 35.6807 63.9231C34.4951 66.3128 31.9462 67.6942 29.2506 67.4099C26.6691 67.1384 24.4846 65.2175 23.8356 62.5924C23.2972 60.4163 23.8501 58.4919 25.3149 56.8154C25.4037 56.7141 25.4962 56.6109 25.6013 56.5276C25.7065 56.4425 25.8297 56.3809 25.9421 56.3103L25.9458 56.3085ZM29.9993 56.9693C27.6879 56.9657 25.8569 58.758 25.8261 61.0554C25.7953 63.342 27.7078 65.2736 29.9848 65.2555C32.2617 65.2393 34.0999 63.3926 34.1235 61.1007C34.1452 58.8286 32.2943 56.9729 29.9993 56.9693Z" fill="#00C9B7"/>
<path d="M49.5381 25.0554C48.3706 24.056 47.6908 22.8068 47.3482 21.3513C45.5191 21.3513 43.7352 21.3513 41.9496 21.3513C39.4859 21.3513 37.0223 21.3531 34.5587 21.3513C33.7683 21.3513 33.2697 20.9385 33.2534 20.2904C33.2371 19.6205 33.752 19.1878 34.5822 19.186C38.5596 19.1842 42.5388 19.186 46.5161 19.186C46.7627 19.186 47.011 19.186 47.2467 19.186C47.4697 18.5687 47.6346 17.9604 47.9011 17.401C49.1574 14.7705 52.1812 13.3203 54.9603 13.9847C58.0022 14.7125 60.0181 17.2887 59.9546 20.37C59.8948 23.2757 57.7484 25.8538 54.8352 26.3516C53.9252 26.5073 52.9499 26.415 52.0253 26.2883C51.5449 26.2213 51.3528 26.3064 51.1352 26.6992C49.2481 30.1118 47.3428 33.5136 45.4411 36.9171C45.3196 37.1344 45.2072 37.3571 45.064 37.558C44.716 38.045 44.1304 38.1826 43.6319 37.9111C43.1334 37.6395 42.9321 37.0692 43.1587 36.5189C43.244 36.3125 43.3654 36.1188 43.476 35.9232C45.4846 32.3223 47.495 28.7214 49.5399 25.0572L49.5381 25.0554ZM49.4873 20.0967C49.4511 22.4086 51.2313 24.2823 53.5118 24.3348C55.8014 24.3855 57.7285 22.5335 57.7774 20.2343C57.8264 18.0165 55.9646 16.083 53.7511 16.054C51.3654 16.0233 49.5218 17.7703 49.4855 20.0985L49.4873 20.0967Z" fill="#00C9B7"/>
<path d="M10.4209 25.0517C12.4929 28.6236 14.5396 32.1558 16.5863 35.686C16.6534 35.8037 16.7259 35.9178 16.7912 36.0355C17.1846 36.7524 17.0577 37.3951 16.4594 37.7282C15.8848 38.0468 15.3028 37.8386 14.8931 37.1326C12.8972 33.7018 10.8977 30.2747 8.93074 26.8277C8.63525 26.3099 8.37782 26.1959 7.77777 26.3335C4.30257 27.1246 0.86363 24.9467 0.145748 21.5558C-0.595701 18.0563 1.56157 14.7378 5.08209 13.9594C8.24548 13.2587 11.5684 15.2755 12.4549 18.4365C12.5201 18.6719 12.5818 18.909 12.6543 19.1842C13.9269 19.1842 15.1904 19.1842 16.4558 19.1842C19.485 19.1842 22.5161 19.1878 25.5453 19.1806C26.0511 19.1806 26.4935 19.3544 26.6059 19.8378C26.6856 20.1872 26.6439 20.6959 26.4336 20.9439C26.2179 21.1992 25.7321 21.3313 25.3622 21.3331C21.3378 21.3603 17.3133 21.3585 13.2888 21.3386C12.7903 21.3368 12.5473 21.4255 12.4096 21.974C12.1068 23.1816 11.3962 24.1755 10.4227 25.0499L10.4209 25.0517ZM10.4716 20.1854C10.4753 17.8717 8.66606 16.0522 6.36195 16.0522C4.03971 16.0522 2.15981 17.9223 2.17794 20.2125C2.19607 22.4665 4.09591 24.342 6.3547 24.333C8.64249 24.3239 10.468 22.4846 10.4716 20.1835V20.1854Z" fill="#00C9B7"/>
</svg>
