<svg width="67" height="76" viewBox="0 0 67 76" fill="none" xmlns="http://www.w3.org/2000/svg">
<path d="M55.319 55.8819C54.4648 51.7187 55.791 49.476 59.9293 48.1105C59.9293 46.3954 59.9293 44.6559 59.9293 42.918C59.9293 42.6656 59.9202 42.4116 59.9323 42.1592C59.9719 41.3868 60.4637 40.879 61.1534 40.885C61.8416 40.8911 62.3441 41.402 62.3517 42.1805C62.3699 44.0264 62.376 45.8739 62.3471 47.7198C62.3395 48.1972 62.4887 48.4086 62.9287 48.6078C65.1136 49.5946 66.3134 51.3143 66.3606 53.7106C66.4062 56.04 65.3313 57.8221 63.253 58.8697C61.1458 59.9326 59.0888 59.6786 57.1811 58.2813C57.0197 58.1627 56.8644 58.0365 56.6862 57.8981C50.6919 61.3466 44.7129 64.7876 38.7064 68.2422C39.2103 70.9837 38.4719 73.2462 36.016 74.6953C34.0078 75.8798 31.9158 75.79 29.9943 74.4748C27.814 72.9832 27.17 70.8256 27.6709 68.2437C25.9824 67.2706 24.3 66.299 22.616 65.3289C18.496 62.9569 14.3698 60.5925 10.2589 58.2053C9.8235 57.9513 9.56162 57.9726 9.14748 58.2858C7.28844 59.6954 5.23756 59.9219 3.15318 58.8895C1.06576 57.8571 -0.0243933 56.0887 0.00149012 53.7562C0.0288961 51.3918 1.19365 49.6721 3.32675 48.6579C3.82615 48.4207 4.02408 48.1911 4.02256 47.6149C3.9982 41.0903 4.00124 34.5643 4.01799 28.0397C4.01799 27.5212 3.87792 27.2734 3.37547 27.0407C1.23172 26.0524 0.0517345 24.3418 0.00149012 21.9759C-0.0457091 19.6419 1.02922 17.8614 3.10446 16.8122C5.20711 15.7479 7.26865 15.9942 9.17641 17.3931C9.33932 17.5117 9.49463 17.6394 9.68951 17.7914C15.6701 14.3505 21.6492 10.9111 27.6572 7.45495C27.1471 4.69065 27.8917 2.40987 30.3978 0.965381C32.4197 -0.199335 34.5041 -0.0868172 36.4165 1.24364C38.5587 2.73678 39.1829 4.87311 38.6927 7.43974C44.6657 10.8776 50.6463 14.317 56.4168 17.6394C57.647 17.1406 58.6915 16.5233 59.8151 16.3013C62.6212 15.7463 65.3602 17.5345 66.1489 20.2607C66.9437 23.0068 65.6069 25.9308 62.979 27.0453C62.4506 27.2688 62.3243 27.5379 62.3456 28.0473C62.3791 28.8304 62.3654 29.615 62.3502 30.3996C62.3349 31.2343 61.8553 31.7635 61.1443 31.768C60.4317 31.7726 59.9399 31.2404 59.9278 30.4132C59.9125 29.4781 59.9247 28.5445 59.9247 27.544C58.186 27.1897 56.7593 26.355 55.8275 24.8177C54.8896 23.2714 54.8013 21.6277 55.3494 19.8304C49.4404 16.429 43.5116 13.017 37.5949 9.61256C34.2362 12.2567 31.6798 12.2613 28.8037 9.59736C22.8977 12.9942 16.9689 16.4062 11.0141 19.8304C11.5333 21.5532 11.4831 23.1969 10.5604 24.7524C9.63775 26.3078 8.23395 27.17 6.46474 27.5227V48.1531C8.18523 48.4968 9.60577 49.3391 10.5345 50.8824C11.4679 52.4319 11.5501 54.0755 11.0035 55.8545C16.9232 59.2605 22.8535 62.6741 28.7763 66.0831C31.7392 63.153 35.3644 63.7704 37.5569 66.0998C43.4689 62.6984 49.3978 59.2879 55.3129 55.885L55.319 55.8819ZM5.69585 25.1158C7.49551 25.1066 8.91605 23.685 8.92214 21.8847C8.92824 20.0661 7.45288 18.5867 5.64865 18.6049C3.8703 18.6232 2.4254 20.0752 2.41626 21.8558C2.40561 23.6773 3.86117 25.1234 5.69585 25.1142V25.1158ZM60.6951 25.1158C62.4978 25.1158 63.926 23.7062 63.9488 21.9075C63.9717 20.0996 62.4963 18.6049 60.6921 18.6049C58.8848 18.6049 57.4247 20.0905 57.4445 21.909C57.4643 23.7078 58.8909 25.1158 60.6951 25.1142V25.1158ZM36.4317 6.00742C36.4926 4.22537 35.101 2.71398 33.3302 2.64099C31.5108 2.56497 29.9958 3.96688 29.9334 5.78694C29.8725 7.57051 31.2596 9.07734 33.0333 9.15489C34.8452 9.23395 36.3693 7.82291 36.4317 6.00894V6.00742ZM36.4362 69.7946C36.4362 67.9822 34.9563 66.5149 33.146 66.5316C31.3677 66.5483 29.9304 68.0035 29.9288 69.7886C29.9288 71.6041 31.4027 73.0668 33.2176 73.0501C34.9974 73.0333 36.4362 71.5767 36.4362 69.7946ZM57.4445 53.8231C57.446 55.6356 58.929 57.112 60.7256 57.0877C62.4994 57.0649 63.9534 55.5976 63.9504 53.8338C63.9473 52.0092 62.4613 50.5783 60.5703 50.5783C58.8696 50.5783 57.4414 52.0593 57.4445 53.8216V53.8231ZM8.92214 53.8307C8.91605 51.997 7.4407 50.5768 5.54359 50.5799C3.8429 50.5829 2.40865 52.073 2.41474 53.8277C2.42083 55.6325 3.91903 57.1135 5.70803 57.0877C7.48637 57.0618 8.92671 55.6021 8.92062 53.8292L8.92214 53.8307Z" fill="#00C9B7"/>
<path d="M16.1638 50.5647H40.4303V37.2769H16.2079C16.1942 37.4776 16.1683 37.6936 16.1653 37.9095C16.1577 38.7184 16.1881 39.5288 16.147 40.3362C16.1135 41.0113 15.5898 41.4751 14.9579 41.4797C14.326 41.4857 13.7703 41.0235 13.7536 40.3545C13.717 38.8887 13.7155 37.4214 13.7536 35.9556C13.7703 35.2911 14.2027 34.9065 14.8666 34.8213C15.0904 34.7924 15.3218 34.8091 15.5502 34.8091C22.3103 34.8091 29.0705 34.8091 35.8321 34.8091H36.8325C36.9375 33.462 37.0806 32.1634 37.1278 30.8619C37.1887 29.1695 37.169 27.4742 37.1903 25.7818C37.2162 23.8234 38.3718 22.6754 40.3222 22.6708C42.3989 22.6663 44.4742 22.6678 46.5509 22.6708C48.716 22.6724 49.7544 23.7641 49.8183 25.9476C49.9051 28.9263 49.9051 31.9217 50.2447 34.876C50.5492 37.5217 51.2602 40.1218 51.7961 42.7402C52.3138 45.2673 52.8452 47.7974 52.4813 50.399C52.4097 50.916 52.2468 51.436 52.0291 51.9119C51.688 52.6585 51.1019 53.0325 50.2233 53.0325C38.5758 53.0173 26.9282 53.0234 15.2822 53.0204C14.151 53.0204 13.7399 52.5992 13.7368 51.4542C13.7322 49.4563 13.7322 47.4583 13.7368 45.4619C13.7383 44.4918 14.1707 43.9414 14.9244 43.9231C15.704 43.9049 16.1622 44.4766 16.1653 45.4847C16.1699 47.1512 16.1653 48.8177 16.1653 50.5663L16.1638 50.5647ZM39.3112 34.8107C39.9857 34.8107 40.6145 34.8107 41.2433 34.8107C42.5299 34.8137 42.9075 35.1908 42.9075 36.4848C42.9075 40.9079 42.9075 45.3296 42.9075 49.7528V50.5921C45.1121 50.5921 47.2102 50.5541 49.3068 50.6119C50.0559 50.6332 50.2599 50.3306 50.2005 49.6965C50.0345 47.9647 49.9554 46.2161 49.6524 44.5085C49.2428 42.2004 48.6216 39.9318 48.1618 37.6312C47.8984 36.3084 47.7766 34.9566 47.5954 33.649H39.4315C39.3904 34.0489 39.3538 34.394 39.3097 34.8091L39.3112 34.8107ZM47.4066 28.797H39.6462V31.1204H47.4066V28.797ZM47.3731 26.279C47.4508 25.1539 47.4036 25.0991 46.3956 25.0976C44.4757 25.0976 42.5542 25.0961 40.6343 25.0976C39.6401 25.0976 39.5304 25.2481 39.774 26.279H47.3731Z" fill="#00C9B7"/>
<path d="M25.9583 38.4538C26.7181 38.4538 27.4778 38.4371 28.2361 38.4584C29.0461 38.4812 29.5135 38.9312 29.5257 39.7371C29.547 41.3048 29.547 42.8724 29.5257 44.4401C29.515 45.249 29.0506 45.7173 28.2452 45.728C26.6754 45.7493 25.1057 45.7493 23.5359 45.728C22.7274 45.7173 22.2585 45.2536 22.2478 44.4492C22.2265 42.8816 22.228 41.3139 22.2478 39.7462C22.2585 38.9358 22.7198 38.4812 23.5268 38.4584C24.3368 38.4356 25.1468 38.4538 25.9568 38.4538H25.9583ZM24.7296 40.9079V43.2693H27.0576V40.9079H24.7296Z" fill="#00C9B7"/>
<path d="M31.3614 42.0194C31.3614 41.2607 31.3447 40.5019 31.366 39.7447C31.3888 38.9358 31.8395 38.4705 32.648 38.4599C34.2177 38.4386 35.7875 38.4401 37.3572 38.4599C38.1657 38.4705 38.6331 38.9327 38.6453 39.7386C38.6666 41.3063 38.6666 42.8739 38.6453 44.4416C38.6347 45.249 38.1688 45.7173 37.3633 45.7279C35.7936 45.7492 34.2238 45.7492 32.6541 45.7279C31.8456 45.7173 31.3888 45.252 31.366 44.4477C31.3431 43.6387 31.3614 42.8298 31.3614 42.0209V42.0194ZM36.1803 43.2723V40.9277H33.8462V43.2723H36.1803Z" fill="#00C9B7"/>
<path d="M62.3494 36.3858C62.3494 36.6884 62.3738 36.994 62.3463 37.2951C62.2854 37.9687 61.7891 38.4355 61.1588 38.4446C60.5284 38.4537 59.9894 37.993 59.9453 37.327C59.9026 36.6732 59.9057 36.0118 59.9422 35.3564C59.9803 34.6798 60.4903 34.2176 61.1253 34.2069C61.7571 34.1978 62.2763 34.657 62.3433 35.323C62.3783 35.6727 62.3494 36.03 62.3509 36.3843L62.3494 36.3858Z" fill="#00C9B7"/>
</svg>
