<svg xmlns="http://www.w3.org/2000/svg" width="12.225" height="21.539" viewBox="0 0 12.225 21.539">
  <path id="facebook" d="M8.051,21.538H4.6a1.046,1.046,0,0,1-1.045-1.045v-7.78H1.545A1.046,1.046,0,0,1,.5,11.669V8.335A1.046,1.046,0,0,1,1.545,7.29H3.557V5.621a5.684,5.684,0,0,1,1.5-4.072A5.414,5.414,0,0,1,9.052,0l2.631,0a1.046,1.046,0,0,1,1.043,1.045v3.1a1.046,1.046,0,0,1-1.044,1.045H9.91c-.54,0-.678.108-.707.141-.048.055-.106.211-.106.64V7.29h2.451a1.062,1.062,0,0,1,.517.131,1.048,1.048,0,0,1,.538.914v3.334a1.046,1.046,0,0,1-1.045,1.044H9.1v7.78a1.046,1.046,0,0,1-1.045,1.045ZM4.82,20.276H7.833V12.148a.7.7,0,0,1,.7-.7h2.807v-2.9H8.531a.7.7,0,0,1-.7-.7V5.971A2.15,2.15,0,0,1,8.256,4.5a2.14,2.14,0,0,1,1.653-.569h1.553V1.266l-2.412,0A3.986,3.986,0,0,0,4.82,5.621V7.855a.7.7,0,0,1-.7.7H1.763v2.9h2.36a.7.7,0,0,1,.7.7ZM11.68,1.267h0Zm0,0" transform="translate(-0.5 0)" fill="#006DC4"/>
</svg>
