<svg xmlns="http://www.w3.org/2000/svg" width="79.454" height="79.454" viewBox="0 0 79.454 79.454">
  <g id="noun_play_2290783" transform="translate(0)">
    <g id="Сгруппировать_44" data-name="Сгруппировать 44" transform="translate(0)">
      <path id="Контур_63" data-name="Контур 63" d="M127.973,89.294,104.518,73.168A2.275,2.275,0,0,0,101,74.927v32.251c0,2.052,2.052,2.639,3.518,1.759l23.455-15.832A2.2,2.2,0,0,0,127.973,89.294Z" transform="translate(-71.388 -51.472)" fill="#eef2fd"/>
      <path id="Контур_64" data-name="Контур 64" d="M39.581,0A39.727,39.727,0,1,1,0,39.581,39.854,39.854,0,0,1,39.581,0Zm0,5.277a34.45,34.45,0,0,0,0,68.9,34.45,34.45,0,1,0,0-68.9Z" fill="#eef2fd"/>
    </g>
  </g>
</svg>
