<svg id="instagramrt" xmlns="http://www.w3.org/2000/svg" width="21.538" height="21.538" viewBox="0 0 21.538 21.538">
  <path id="Контур_46" data-name="Контур 46" d="M15.707,0H5.829A5.837,5.837,0,0,0,0,5.83v9.878a5.837,5.837,0,0,0,5.83,5.83h9.878a5.837,5.837,0,0,0,5.83-5.83V5.83A5.837,5.837,0,0,0,15.707,0Zm4.568,15.708a4.573,4.573,0,0,1-4.568,4.567H5.829a4.573,4.573,0,0,1-4.568-4.567V5.83A4.573,4.573,0,0,1,5.829,1.263h9.878A4.573,4.573,0,0,1,20.275,5.83Zm0,0" transform="translate(0.001 0)" fill="#006DC4"/>
  <path id="Контур_47" data-name="Контур 47" d="M121.893,116a5.889,5.889,0,1,0,5.889,5.889A5.9,5.9,0,0,0,121.893,116Zm0,10.516a4.627,4.627,0,1,1,4.627-4.627A4.632,4.632,0,0,1,121.893,126.52Zm0,0" transform="translate(-111.124 -111.124)" fill="#006DC4"/>
  <path id="Контур_48" data-name="Контур 48" d="M359.717,66.285a1.74,1.74,0,1,0,1.74,1.74A1.742,1.742,0,0,0,359.717,66.285Zm0,2.218a.478.478,0,1,1,.478-.478A.478.478,0,0,1,359.717,68.5Zm0,0" transform="translate(-342.918 -63.497)" fill="#006DC4"/>
</svg>
