<svg id="linkedin" xmlns="http://www.w3.org/2000/svg" width="19.188" height="21.538" viewBox="0 0 19.188 21.538">
  <path id="Контур_51" data-name="Контур 51" d="M4.869,151.625H1.238a.739.739,0,0,0-.738.738v13.684a.739.739,0,0,0,.738.738H4.869a.739.739,0,0,0,.738-.738V152.363A.739.739,0,0,0,4.869,151.625Zm-.526,13.9H1.763V152.889H4.343Zm0,0" transform="translate(-0.479 -145.247)" fill="#fc5936"/>
  <path id="Контур_52" data-name="Контур 52" d="M2.575,0A2.575,2.575,0,1,0,5.149,2.574,2.577,2.577,0,0,0,2.575,0Zm0,3.885A1.311,1.311,0,1,1,3.885,2.574,1.312,1.312,0,0,1,2.575,3.885Zm0,0" fill="#fc5936"/>
  <path id="Контур_53" data-name="Контур 53" d="M168.1,153.233a4.711,4.711,0,0,0-3.106-1.091,4.761,4.761,0,0,0-2.017.491v-.3a.705.705,0,0,0-.7-.7h-3.7a.705.705,0,0,0-.7.7v13.75a.7.7,0,0,0,.7.7h3.77a.632.632,0,0,0,.632-.632v-8.2a1.308,1.308,0,0,1,1.251-1.317,1.291,1.291,0,0,1,1.329,1.289v8.239a.619.619,0,0,0,.619.619H169.8a.619.619,0,0,0,.619-.619v-7.988a6.431,6.431,0,0,0-2.317-4.949Zm1.053,12.292h-2.333v-7.593a2.554,2.554,0,0,0-5.107,0v7.593h-2.579V152.893h2.579v.918h0a.631.631,0,0,0,1.05.473,3.5,3.5,0,0,1,2.253-.878,3.444,3.444,0,0,1,2.273.8,5.17,5.17,0,0,1,1.863,3.979Zm0,0" transform="translate(-151.226 -145.251)" fill="#fc5936"/>
</svg>
