<svg id="g4421" xmlns="http://www.w3.org/2000/svg" width="185.536" height="122.35" viewBox="0 0 185.536 122.35">
  <path id="path4423" d="M58.036,55.269V85.23H48.5V47.57l19.69.02c8.363,0,11.212,5.9,11.212,11.255V85.23h-9.52V58.894c0-2.244-1.162-3.625-3.964-3.625H58.036Zm64.853-.45a7.307,7.307,0,0,0-6.837,3.951,9.765,9.765,0,0,0-.913,4.085h14.673c-.188-4.085-2.041-8.036-6.924-8.036M115.14,69.346c0,4.878,3.033,8.469,8.447,8.469a10.725,10.725,0,0,0,8.742-3.59l5.891,5.624c-3.772,3.724-7.73,5.985-14.7,5.985-9.13,0-17.867-4.978-17.867-19.487,0-12.4,7.629-19.415,17.653-19.415,10.161,0,16.031,8.216,16.031,18.978v3.436H115.14M97.6,85.183c-7.77,0-11.066-5.409-11.066-10.751V37.309h9.523V47.57h7.179v7.7H96.055V73.835c0,2.188,1.033,3.4,3.3,3.4h3.874v7.945H97.6M40.012,42.366h-9.6V33.244h9.6Zm.024,43.26C32.846,84.935,30.4,80.573,30.4,75.54l.01-27.97h9.627V85.626Zm114.452-.8c-7.176-.692-9.611-5.047-9.611-10.073v-42.8h9.611V84.821Zm33.6-46.69C179.378-4.333,96.948-7.021,43.817,25.324v3.571C96.894,1.617,172.171,1.778,179.029,40.89c2.295,12.933-4.993,26.416-18.008,34.167V85.2c15.666-5.731,31.732-24.316,27.067-47.065m-96.581,74.3c-36.669,3.39-74.881-1.933-80.228-30.587-2.617-14.125,3.818-29.1,12.354-38.4V38.468C8.267,51.943-.073,69,4.728,89.162c6.128,25.849,38.923,40.5,88.98,35.634,19.8-1.933,45.727-8.3,63.748-18.192V92.552c-16.352,9.737-43.411,17.789-65.948,19.876" transform="translate(-3.372 -3.372)" fill="#ccc"/>
  <path id="path4425" d="M861.879,160.987c0-.466-.272-.614-.894-.614h-.6v1.319c.087,0,.523.016.6.016.622,0,.894-.208.894-.644v-.077Zm.937,3.27H862.1a.17.17,0,0,1-.148-.094l-.971-1.646a.219.219,0,0,0-.134-.073h-.436v1.632a.174.174,0,0,1-.174.181H859.6a.188.188,0,0,1-.161-.181v-4.129c0-.239.093-.339.295-.37.227-.03.845-.05,1.178-.05,1.182,0,1.9.349,1.9,1.46v.077a1.174,1.174,0,0,1-.872,1.228l1.007,1.7a.692.692,0,0,1,.03.122.138.138,0,0,1-.154.141m-1.69-5.475a3.177,3.177,0,1,0,3.173,3.188,3.189,3.189,0,0,0-3.173-3.188m0,7.011a3.824,3.824,0,1,1,3.835-3.823,3.818,3.818,0,0,1-3.835,3.823" transform="translate(-699.653 -129.572)" fill="#ccc"/>
</svg>
