<svg xmlns="http://www.w3.org/2000/svg" width="207.916" height="49.55" viewBox="0 0 207.916 49.55">
  <g id="Сгруппировать_25" data-name="Сгруппировать 25" transform="translate(-300.967 -1336)">
    <g id="logo-de-best" transform="translate(218.867 1272.8)">
      <path id="Контур_17" data-name="Контур 17" d="M82.1,94.546C82.1,84.319,89.259,76.7,98.719,76.7c5.114,0,9,2.25,10.943,5.165h.153V63.2h9.051V94.8c0,10.38-8.54,17.948-18.767,17.948S82.1,105.131,82.1,94.546Zm27.715.2c0-5.625-3.784-9.92-9.2-9.92s-9.2,4.3-9.2,9.92c0,5.523,3.784,9.92,9.2,9.92S109.815,100.273,109.815,94.75Zm50.112,2.761H133.849c.972,5.267,4.346,7.466,8.54,7.466a9.694,9.694,0,0,0,7.977-3.784l6.8,4.6a17.856,17.856,0,0,1-14.778,6.954c-10.329,0-17.948-7.568-17.948-17.948s7.517-18.051,17.8-18.051c9.2,0,17.693,6.085,17.693,20.3Zm-28.585-29.3a4.54,4.54,0,0,1,4.5-4.5,4.609,4.609,0,0,1,4.5,4.5,4.555,4.555,0,0,1-4.5,4.4A4.453,4.453,0,0,1,131.343,68.211Zm2.506,23.113H150.11c-.665-4.3-3.579-7.006-7.977-7.006A8.078,8.078,0,0,0,133.849,91.324Zm10.278-23.113a4.591,4.591,0,0,1,4.4-4.5,4.654,4.654,0,0,1,4.551,4.5,4.6,4.6,0,0,1-4.551,4.4A4.464,4.464,0,0,1,144.127,68.211Z" fill="#12100b"/>
      <path id="Контур_18" data-name="Контур 18" d="M246.6,95.262V63.2h5.829V84.063h.153c2.352-3.784,7.21-6.187,12.579-6.187,9.358,0,16.261,7.568,16.261,17.335a17.412,17.412,0,1,1-34.823.051Zm28.943,0c0-7.057-4.807-12.375-11.557-12.375-6.7,0-11.505,5.318-11.505,12.375s4.807,12.477,11.505,12.477C270.736,107.739,275.543,102.37,275.543,95.262Zm44.488,2.352H292.417c.92,6.494,5.523,10.125,11.3,10.125a11.133,11.133,0,0,0,9.665-5.062l4.4,2.812a15.782,15.782,0,0,1-13.755,7.261c-10.074,0-17.591-7.517-17.591-17.233,0-9.665,7.312-17.59,17.13-17.59,8.437,0,16.466,5.778,16.466,18.92v.767Zm-27.715-4.4h21.528c-.511-6.443-4.653-10.329-10.483-10.329C297.582,82.887,293.031,86.671,292.315,93.216Zm31.5,13.4,3.579-3.579a11.212,11.212,0,0,0,9.2,4.756c4.091,0,6.75-1.892,6.75-4.909,0-3.835-4.346-4.858-7.977-6.085-4.756-1.636-9.511-4.142-9.511-9.665,0-5.471,4.756-9.2,11.659-9.2,5.318,0,8.949,2.25,10.892,4.653l-3.375,3.682a9.08,9.08,0,0,0-7.466-3.426c-3.426,0-5.829,1.432-5.829,3.937,0,3.222,3.886,4.4,6.852,5.471,5.011,1.687,10.636,3.835,10.636,10.227,0,6.085-5.114,10.227-12.63,10.227C330.155,112.75,325.962,109.682,323.814,106.614ZM357.154,83.5H352.6V78.847h4.551V70.973h5.778V78.8H370.4V83.45h-7.466v28.329h-5.778Z" transform="translate(-80.383)" fill="#12100b"/>
    </g>
  </g>
</svg>
