<svg xmlns="http://www.w3.org/2000/svg" width="164.067" height="39.1" viewBox="0 0 164.067 39.1">
  <g id="logo-black" transform="translate(-82.1 -63.2)">
    <path id="Контур_17" data-name="Контур 17" d="M82.1,87.935c0-8.07,5.649-14.082,13.114-14.082,4.035,0,7.1,1.775,8.635,4.075h.121V63.2h7.142V88.137c0,8.191-6.739,14.163-14.809,14.163S82.1,96.288,82.1,87.935Zm21.87.161c0-4.439-2.986-7.828-7.263-7.828s-7.263,3.389-7.263,7.828c0,4.358,2.986,7.828,7.263,7.828S103.97,92.454,103.97,88.1Zm39.544,2.179H122.935c.767,4.156,3.43,5.891,6.739,5.891a7.65,7.65,0,0,0,6.295-2.986l5.367,3.632a14.09,14.09,0,0,1-11.661,5.488,13.739,13.739,0,0,1-14.163-14.163c0-8.191,5.932-14.244,14.042-14.244,7.263,0,13.961,4.8,13.961,16.019ZM120.958,67.154a3.582,3.582,0,0,1,3.551-3.551,3.637,3.637,0,0,1,3.551,3.551,3.594,3.594,0,0,1-3.551,3.47A3.514,3.514,0,0,1,120.958,67.154Zm1.977,18.239h12.832a6.052,6.052,0,0,0-6.295-5.528A6.374,6.374,0,0,0,122.935,85.393Zm8.111-18.239a3.623,3.623,0,0,1,3.47-3.551,3.673,3.673,0,0,1,3.591,3.551,3.631,3.631,0,0,1-3.591,3.47A3.523,3.523,0,0,1,131.046,67.154Z" fill="#01043b"/>
    <path id="Контур_18" data-name="Контур 18" d="M246.6,88.5V63.2h4.6V79.663h.121c1.856-2.986,5.689-4.882,9.926-4.882,7.384,0,12.832,5.972,12.832,13.679a13.74,13.74,0,1,1-27.479.04Zm22.839,0c0-5.568-3.793-9.765-9.119-9.765-5.286,0-9.079,4.2-9.079,9.765s3.793,9.846,9.079,9.846C265.646,98.346,269.439,94.109,269.439,88.5Zm35.105,1.856H282.754c.726,5.125,4.358,7.989,8.918,7.989a8.785,8.785,0,0,0,7.626-3.995l3.47,2.219a12.454,12.454,0,0,1-10.854,5.73,13.741,13.741,0,0,1-.363-27.479c6.658,0,12.993,4.56,12.993,14.93v.605Zm-21.87-3.47h16.988c-.4-5.084-3.672-8.151-8.272-8.151C286.83,78.735,283.239,81.721,282.674,86.886ZM307.53,97.458l2.825-2.825a8.848,8.848,0,0,0,7.263,3.753c3.228,0,5.326-1.493,5.326-3.874,0-3.026-3.43-3.833-6.295-4.8-3.753-1.291-7.505-3.268-7.505-7.626,0-4.318,3.753-7.263,9.2-7.263a10.782,10.782,0,0,1,8.595,3.672L324.275,81.4a7.165,7.165,0,0,0-5.891-2.7c-2.7,0-4.6,1.13-4.6,3.107,0,2.542,3.067,3.47,5.407,4.318,3.954,1.332,8.393,3.026,8.393,8.07,0,4.8-4.035,8.07-9.967,8.07A11.818,11.818,0,0,1,307.53,97.458Zm26.309-18.239h-3.591V75.547h3.591V69.333h4.56v6.174h5.891v3.672H338.4v22.354h-4.56Z" transform="translate(-98.123)" fill="#01043b"/>
  </g>
</svg>
