<svg id="logo-de-best" xmlns="http://www.w3.org/2000/svg" width="33.592" height="21.387" viewBox="0 0 33.592 21.387">
  <path id="Контур_17" data-name="Контур 17" d="M82.1,76.73c0-4.414,3.09-7.7,7.173-7.7A5.557,5.557,0,0,1,94,71.256h.066V63.2h3.907V76.84a7.838,7.838,0,0,1-8.1,7.747A7.6,7.6,0,0,1,82.1,76.73Zm11.963.088A3.984,3.984,0,1,0,90.09,81.1,4.008,4.008,0,0,0,94.063,76.818Zm21.63,1.192H104.436a3.524,3.524,0,0,0,3.686,3.222,4.184,4.184,0,0,0,3.443-1.633l2.935,1.986a7.707,7.707,0,0,1-6.379,3,7.769,7.769,0,0,1-.066-15.538c3.973,0,7.637,2.626,7.637,8.762ZM103.354,65.363a1.959,1.959,0,0,1,1.942-1.942,1.989,1.989,0,0,1,1.942,1.942,1.966,1.966,0,0,1-1.942,1.9A1.922,1.922,0,0,1,103.354,65.363Zm1.081,9.976h7.019a3.31,3.31,0,0,0-3.443-3.024A3.487,3.487,0,0,0,104.436,75.339Zm4.436-9.976a1.982,1.982,0,0,1,1.9-1.942,2.009,2.009,0,0,1,1.964,1.942,1.986,1.986,0,0,1-1.964,1.9A1.927,1.927,0,0,1,108.872,65.363Z" transform="translate(-82.1 -63.2)" fill="#eef2fd"/>
</svg>
