<svg xmlns="http://www.w3.org/2000/svg" width="161" height="64" viewBox="0 0 161 64">
  <g id="Сгруппировать_56" data-name="Сгруппировать 56" transform="translate(630 -7881)">
    <g id="logo-de-best" transform="translate(-712.1 7832.25)">
      <path id="Контур_17" data-name="Контур 17" d="M82.1,87.935c0-8.07,5.649-14.082,13.114-14.082,4.035,0,7.1,1.775,8.635,4.075h.121V63.2h7.142V88.137c0,8.191-6.739,14.163-14.809,14.163S82.1,96.288,82.1,87.935Zm21.87.161c0-4.439-2.986-7.828-7.263-7.828s-7.263,3.389-7.263,7.828c0,4.358,2.986,7.828,7.263,7.828S103.97,92.454,103.97,88.1Zm39.544,2.179H122.935c.767,4.156,3.43,5.891,6.739,5.891a7.65,7.65,0,0,0,6.295-2.986l5.367,3.632a14.09,14.09,0,0,1-11.661,5.488,13.739,13.739,0,0,1-14.163-14.163c0-8.191,5.932-14.244,14.042-14.244,7.263,0,13.961,4.8,13.961,16.019ZM120.958,67.154a3.582,3.582,0,0,1,3.551-3.551,3.637,3.637,0,0,1,3.551,3.551,3.594,3.594,0,0,1-3.551,3.47A3.514,3.514,0,0,1,120.958,67.154Zm1.977,18.239h12.832a6.052,6.052,0,0,0-6.295-5.528A6.374,6.374,0,0,0,122.935,85.393Zm8.111-18.239a3.623,3.623,0,0,1,3.47-3.551,3.673,3.673,0,0,1,3.591,3.551,3.631,3.631,0,0,1-3.591,3.47A3.523,3.523,0,0,1,131.046,67.154Z" fill="#050b43"/>
    </g>
    <text id="blog" transform="translate(-566 7933)" fill="#fc5936" font-size="48" font-family="SegoeUI, Segoe UI"><tspan x="0" y="0">blog</tspan></text>
  </g>
</svg>
