<svg xmlns="http://www.w3.org/2000/svg" width="88" height="88" viewBox="0 0 88 88">
  <g id="Сгруппировать_59" data-name="Сгруппировать 59" transform="translate(-190 -1706)">
    <circle id="Эллипс_10" data-name="Эллипс 10" cx="44" cy="44" r="44" transform="translate(190 1706)" fill="#050b43"/>
    <g id="noun_strategy_1563422" transform="translate(214.686 1730.603)">
      <path id="Контур_19" data-name="Контур 19" d="M6,39.5a1.763,1.763,0,0,0,1.763,1.763H9.527A22.949,22.949,0,0,0,32.449,18.341V12.02L34.728,14.3a1.764,1.764,0,0,0,2.5-2.5l-5.29-5.29a1.763,1.763,0,0,0-2.5,0l-5.29,5.29a1.764,1.764,0,0,0,2.5,2.5l2.279-2.279v6.321a19.418,19.418,0,0,1-19.4,19.4H7.763A1.763,1.763,0,0,0,6,39.5Z" transform="translate(-6 -5.997)" fill="#fc5936"/>
      <path id="Контур_20" data-name="Контур 20" d="M10.514,41.826a1.763,1.763,0,0,0,2.5,0l3.161-3.161,3.161,3.161a1.764,1.764,0,1,0,2.5-2.5L18.665,36.17l3.161-3.161a1.764,1.764,0,0,0-2.5-2.5L16.17,33.675l-3.161-3.161a1.764,1.764,0,0,0-2.5,2.5l3.161,3.161-3.161,3.161a1.763,1.763,0,0,0,0,2.5Z" transform="translate(-8.235 -19.418)" fill="#fc5936"/>
      <path id="Контур_21" data-name="Контур 21" d="M76.106,69.053a7.053,7.053,0,1,0-7.053,7.053A7.053,7.053,0,0,0,76.106,69.053ZM69.053,72.58a3.527,3.527,0,1,1,3.527-3.527A3.527,3.527,0,0,1,69.053,72.58Z" transform="translate(-37.314 -37.313)" fill="#fc5936"/>
    </g>
  </g>
</svg>
