<svg id="noun_fast_316759" xmlns="http://www.w3.org/2000/svg" width="54.335" height="31.333" viewBox="0 0 54.335 31.333">
  <g id="Сгруппировать_2" data-name="Сгруппировать 2" transform="translate(0 0)">
    <path id="Контур_22" data-name="Контур 22" d="M35.709,37.049A1.469,1.469,0,0,0,34.261,35.6H16.149a1.449,1.449,0,0,0,0,2.9H34.261A1.43,1.43,0,0,0,35.709,37.049Z" transform="translate(-8.844 -28.657)" fill="#fe58a0"/>
    <path id="Контур_23" data-name="Контур 23" d="M37.437,48.549A1.469,1.469,0,0,0,35.988,47.1H26.449a1.449,1.449,0,1,0,0,2.9h9.539A1.43,1.43,0,0,0,37.437,48.549Z" transform="translate(-12.926 -33.214)" fill="#fe58a0"/>
    <path id="Контур_24" data-name="Контур 24" d="M43.7,24.1H6.449a1.449,1.449,0,1,0,0,2.9h37.31a12.739,12.739,0,1,1-11.35,18.595,1.408,1.408,0,0,0-1.268-.785H23.715a1.449,1.449,0,1,0,0,2.9h6.52A15.64,15.64,0,1,0,43.7,24.1Z" transform="translate(-5 -24.1)" fill="#fe58a0"/>
    <path id="Контур_25" data-name="Контур 25" d="M68.07,33.1a1.6,1.6,0,0,0-1.57,1.57V43.6h0v.3h0c0,.121.06.181.06.3h0c.06.06.06.181.121.241h0c.06.06.121.181.181.241h0l3.985,3.985a1.623,1.623,0,0,0,1.087.483,1.512,1.512,0,0,0,1.087-.483,1.6,1.6,0,0,0,0-2.234L69.458,42.88V34.67A1.323,1.323,0,0,0,68.07,33.1Z" transform="translate(-29.371 -27.667)" fill="#fe58a0"/>
  </g>
</svg>
