<svg xmlns="http://www.w3.org/2000/svg" width="88" height="88" viewBox="0 0 88 88">
  <g id="Сгруппировать_61" data-name="Сгруппировать 61" transform="translate(-1280 -1706)">
    <circle id="Эллипс_12" data-name="Эллипс 12" cx="44" cy="44" r="44" transform="translate(1280 1706)" fill="#050b43"/>
    <g id="noun_client_safety_2408362" data-name="noun_client safety_2408362" transform="translate(1299.02 1724.95)">
      <g id="Сгруппировать_3" data-name="Сгруппировать 3">
        <path id="Контур_27" data-name="Контур 27" d="M31,6.9a5.9,5.9,0,1,0-11.8,0c0,3.3,2.6,7.3,5.9,7.3S31,10.2,31,6.9Zm-9.7,0A3.821,3.821,0,0,1,25.1,3,3.9,3.9,0,0,1,29,6.9c0,2.3-1.9,5.3-3.9,5.3S21.3,9.2,21.3,6.9Z" fill="#fc5936"/>
        <path id="Контур_28" data-name="Контур 28" d="M16.5,26H33.4a2.433,2.433,0,0,0,2.4-2.4,9.176,9.176,0,0,0-9.2-9.2H23.3a9.176,9.176,0,0,0-9.2,9.2A2.432,2.432,0,0,0,16.5,26Zm6.8-9.5h3.3a7.17,7.17,0,0,1,7.2,7.2.43.43,0,0,1-.4.4H16.5a.43.43,0,0,1-.4-.4A7.3,7.3,0,0,1,23.3,16.5Z" fill="#fc5936"/>
        <path id="Контур_29" data-name="Контур 29" d="M48.1,18.8l-3.1-5a2.76,2.76,0,0,0-3.2-1.2,2.882,2.882,0,0,0-2,2.7,2.92,2.92,0,0,0,.2.9l1.6,4.6v2.4a3.091,3.091,0,0,0-.8-.2A3.155,3.155,0,0,0,38,24.3c-2,2.6-2.5,3.8-4.3,5.3-2.2,1.8-2.3,3.7-1.9,6.1a15.227,15.227,0,0,1-.1,6.4h-.3a2.006,2.006,0,0,0-2,2v3a2.006,2.006,0,0,0,2,2H42.2a2.006,2.006,0,0,0,2-2v-3a2.043,2.043,0,0,0-1.6-2c.1-3.3,2.1-5.2,3.8-6.8,1.3-1.2,2.5-2.4,2.5-4-.1-2.9,0-5,0-6.6C49,21.6,49.1,20.3,48.1,18.8ZM42.3,47H31.4V44H42.2ZM47,24.6c0,1.6-.1,3.7,0,6.6,0,.7-.9,1.6-1.9,2.6-1.8,1.7-4.3,4.1-4.4,8.2H33.8a16.2,16.2,0,0,0,0-6.7c-.3-1.6-.4-2.9,1.2-4.2,2.1-1.7,2.7-3.2,4.6-5.7a1.231,1.231,0,0,1,1-.5,1.149,1.149,0,0,1,.9.6c.3.7,0,1.2-1.4,2.9A34.425,34.425,0,0,0,37.5,32a1.012,1.012,0,0,0,1.7,1.1c.9-1.4,1.8-2.5,2.5-3.4,1.4-1.7,2.5-3.1,1.7-4.9V20.5a.367.367,0,0,0-.1-.3l-1.6-4.7v-.3a.833.833,0,0,1,1.5-.5l3.1,5C47,20.9,47,21.6,47,24.6Z" fill="#fc5936"/>
        <path id="Контур_30" data-name="Контур 30" d="M20.5,47V44a2.006,2.006,0,0,0-2-2h-.3a15.3,15.3,0,0,1-.1-6.4,6.145,6.145,0,0,0-.4-4.2,4.837,4.837,0,0,0-1.9-2.1,47.8,47.8,0,0,1-3.9-5A3.155,3.155,0,0,0,9.1,23c-.2,0-.5.1-.7.1V20.7L10,16.2a2.741,2.741,0,0,0-1.9-3.6,2.76,2.76,0,0,0-3.2,1.2,32.817,32.817,0,0,1-2.1,3.3C1.7,19,1,20.1,1,21.9v9.3c0,1.5,1.2,2.6,2.5,4,1.7,1.7,3.7,3.6,3.8,6.9a2.043,2.043,0,0,0-1.6,2v3a2.006,2.006,0,0,0,2,2H18.5A2.165,2.165,0,0,0,20.5,47ZM4.9,33.8c-1-1-1.9-1.9-1.9-2.5V22c0-1.2.5-1.9,1.6-3.7.6-.9,1.3-2,2.1-3.4a.65.65,0,0,1,.9-.3.863.863,0,0,1,.6,1.1L6.6,20.4c0,.1-.1.2-.1.3V25c-.8,1.8.3,3.1,1.7,4.8.7.9,1.6,2,2.5,3.4a1.012,1.012,0,0,0,1.7-1.1,38.857,38.857,0,0,0-2.6-3.6c-1.4-1.7-1.7-2.2-1.4-2.9a.961.961,0,0,1,.9-.6,1.016,1.016,0,0,1,1,.5c.9,1.2,3.3,4.7,4.4,5.5a4.894,4.894,0,0,1,1.2,1.3v.1a4.262,4.262,0,0,1,.2,3,18.188,18.188,0,0,0,0,6.7H9.3C9.2,37.9,6.7,35.5,4.9,33.8ZM7.7,44H18.5v3H7.7Z" fill="#fc5936"/>
      </g>
    </g>
  </g>
</svg>
