<svg xmlns="http://www.w3.org/2000/svg" width="18.631" height="19" viewBox="0 0 18.631 19">
  <g id="noun_loading_2550337" transform="translate(-4.982 -0.008)">
    <g id="Сгруппировать_26" data-name="Сгруппировать 26" transform="translate(4.982 0.008)">
      <path id="Контур_55" data-name="Контур 55" d="M73.155,379.094a1.647,1.647,0,1,0,2.331,0A1.645,1.645,0,0,0,73.155,379.094Z" transform="translate(-70.161 -364.561)" fill="#006dc4"/>
      <path id="Контур_56" data-name="Контур 56" d="M8.691,225.04a1.854,1.854,0,1,0-1.854,1.853A1.854,1.854,0,0,0,8.691,225.04Z" transform="translate(-4.982 -214.905)" fill="#006dc4"/>
      <path id="Контур_57" data-name="Контур 57" d="M63.632,67.788a2.058,2.058,0,1,0,2.06,2.058A2.059,2.059,0,0,0,63.632,67.788Z" transform="translate(-59.472 -65.273)" fill="#006dc4"/>
      <path id="Контур_58" data-name="Контур 58" d="M208.3.008a2.264,2.264,0,1,0,2.266,2.264A2.266,2.266,0,0,0,208.3.008Z" transform="translate(-198.571 -0.008)" fill="#006dc4"/>
      <path id="Контур_59" data-name="Контур 59" d="M229.692,434.336a1.441,1.441,0,1,0,1.443,1.441A1.441,1.441,0,0,0,229.692,434.336Z" transform="translate(-219.965 -418.218)" fill="#006dc4"/>
      <path id="Контур_60" data-name="Контур 60" d="M452.52,245.375a1.029,1.029,0,1,0,1.031,1.029A1.029,1.029,0,0,0,452.52,245.375Z" transform="translate(-434.92 -236.269)" fill="#006dc4"/>
      <path id="Контур_61" data-name="Контур 61" d="M384.169,390.059a1.236,1.236,0,1,0,1.749,0A1.235,1.235,0,0,0,384.169,390.059Z" transform="translate(-369.748 -375.236)" fill="#006dc4"/>
      <path id="Контур_62" data-name="Контур 62" d="M397.864,100.588a.823.823,0,1,0-.824-.823A.823.823,0,0,0,397.864,100.588Z" transform="translate(-382.491 -95.271)" fill="#006dc4"/>
    </g>
  </g>
</svg>
