<svg id="whatsapp" xmlns="http://www.w3.org/2000/svg" width="21.538" height="21.538" viewBox="0 0 21.538 21.538">
  <path id="Контур_49" data-name="Контур 49" d="M18.479,3.059A10.376,10.376,0,0,0,11.094,0h0A10.447,10.447,0,0,0,1.811,15.235L.055,20.251a.969.969,0,0,0,.91,1.288.975.975,0,0,0,.323-.055L6.3,19.728A10.445,10.445,0,0,0,18.479,3.059Zm-.893,13.878a9.185,9.185,0,0,1-10.8,1.616.973.973,0,0,0-.776-.06L1.451,20.088l1.595-4.557a.973.973,0,0,0-.06-.776A9.183,9.183,0,0,1,11.093,1.263h0a9.182,9.182,0,0,1,6.492,15.674Zm0,0" transform="translate(0)" fill="#fc5936"/>
  <path id="Контур_50" data-name="Контур 50" d="M136.965,120.377a1.234,1.234,0,0,0-1.743,0l-.526.526a7.65,7.65,0,0,1-3.072-3.072l.526-.526a1.234,1.234,0,0,0,0-1.743l-1.416-1.416a1.234,1.234,0,0,0-1.743,0l-1.133,1.133c-.649.649-.681,1.765-.091,3.141a13.788,13.788,0,0,0,6.34,6.34,4.573,4.573,0,0,0,1.763.42,1.878,1.878,0,0,0,1.378-.511l1.133-1.133h0a1.232,1.232,0,0,0,0-1.743Zm-.61,3.4c-.185.185-.755.25-1.75-.176a12.559,12.559,0,0,1-5.676-5.676c-.427-1-.362-1.565-.177-1.751l1.111-1.111,1.372,1.373-.658.658a.964.964,0,0,0-.178,1.123,8.912,8.912,0,0,0,3.914,3.914.964.964,0,0,0,1.123-.178l.658-.658,1.373,1.373Zm0,0" transform="translate(-121.99 -108.999)" fill="#fc5936"/>
</svg>
