<svg xmlns="http://www.w3.org/2000/svg" width="105.052" height="58.5" viewBox="0 0 105.052 58.5">
  <g id="Сгруппировать_4201" data-name="Сгруппировать 4201" transform="translate(-360 -20.75)">
    <circle id="Эллипс_141" data-name="Эллипс 141" cx="7.097" cy="7.097" r="7.097" transform="translate(450.857 65.056)" fill="#fff"/>
    <path id="Контур_2076" data-name="Контур 2076" d="M100.582,449.319c-.089-.018-.149-.036-.2-.042-.1-.006-.2-.006-.3-.006H89.957q-5.417,0-10.84.006a.978.978,0,0,1-.429-.042,1.385,1.385,0,0,1-.03-.167c-.006-.072,0-.137,0-.209V438.229a1.281,1.281,0,0,1,.03-.393.767.767,0,0,1,.143-.03c.1-.006.2-.006.3-.006H89.164l21.894.018c.125,0,.256.006.393.006a.807.807,0,0,1,.042.185c.006.1.006.2.006.3v33.538c0,.137-.006.274-.012.423a1.25,1.25,0,0,1-.185.036c-.072.006-.137,0-.209,0H101c-.119,0-.238-.006-.363-.006a.882.882,0,0,1-.042-.185c-.006-.107,0-.22,0-.328V449.772C100.594,449.641,100.588,449.492,100.582,449.319Z" transform="translate(281.348 -393.899)" fill="#78c044"/>
    <path id="Контур_2077" data-name="Контур 2077" d="M848.187,750.876l.209-.185a4.931,4.931,0,0,1,2.67-1.228,5.237,5.237,0,0,1,2.586.262,4.493,4.493,0,0,1,2.032,1.514,6.147,6.147,0,0,1,1.1,2.455,9.16,9.16,0,0,1,.143,2.908,7.125,7.125,0,0,1-.56,2.187,4.778,4.778,0,0,1-1.436,1.877,4.656,4.656,0,0,1-2.1.882,5.8,5.8,0,0,1-1.4.071,4.784,4.784,0,0,1-2.991-1.335c-.066-.06-.131-.125-.191-.185-.006-.006-.018-.006-.03-.012-.06.024-.048.077-.048.125v.685a.479.479,0,0,1-.435.441c-.31.006-.62-.006-.924.006a.39.39,0,0,1-.34-.149c-.042-.054-.1-.1-.149-.161V746.026a.8.8,0,0,0,0-.119.427.427,0,0,1,.167-.393.365.365,0,0,1,.262-.113c.34.006.679,0,1.013.006a.474.474,0,0,1,.405.405c.006.077,0,.161,0,.238V750.5C848.175,750.6,848.181,750.71,848.187,750.876Zm6.865,4.785a6.919,6.919,0,0,0-.125-1.5,4.536,4.536,0,0,0-.62-1.6,2.977,2.977,0,0,0-1.645-1.263,3.571,3.571,0,0,0-1.15-.149,2.952,2.952,0,0,0-2.086.888,4.138,4.138,0,0,0-1.061,1.937,6.343,6.343,0,0,0-.018,3.045,4.37,4.37,0,0,0,.691,1.6,2.949,2.949,0,0,0,1.817,1.21,3.5,3.5,0,0,0,1.245.042,3.132,3.132,0,0,0,1.806-.846,3.526,3.526,0,0,0,.906-1.526A6.04,6.04,0,0,0,855.052,755.661Z" transform="translate(-440.574 -683.169)" fill="#fff"/>
    <path id="Контур_2078" data-name="Контур 2078" d="M1458.562,754.235q2.235,3.432,4.451,6.847c-.083.155-.155.292-.232.435-.078.006-.149.018-.215.018-.375,0-.757-.006-1.132.006a.385.385,0,0,1-.363-.2q-1.323-1.993-2.646-3.975c-.34-.512-.685-1.025-1.025-1.543-.06-.089-.119-.179-.191-.28-.066.054-.119.1-.167.143-.471.447-.936.894-1.406,1.341a.53.53,0,0,0-.179.417c.006,1.114.006,2.229.006,3.343,0,.078-.006.161,0,.238a.472.472,0,0,1-.179.417.353.353,0,0,1-.268.1c-.316,0-.638.006-.953,0a.464.464,0,0,1-.435-.441V746.232a1.237,1.237,0,0,0,0-.149.394.394,0,0,1,.155-.364.382.382,0,0,1,.292-.119c.316.006.638,0,.953.006a.458.458,0,0,1,.435.435c.006.077,0,.161,0,.238v8.033a1.5,1.5,0,0,0,.018.364c.1,0,.149-.072.2-.125l2.2-2.145c.8-.781,1.6-1.555,2.4-2.336.048-.048.1-.1.161-.149h1.859c.066.155.131.31.2.471-.2.244-.441.441-.656.661s-.429.417-.644.626l-.661.644-.644.626c-.22.214-.447.429-.661.644C1459,753.788,1458.794,754,1458.562,754.235Z" transform="translate(-1011.685 -683.357)" fill="#fff"/>
    <path id="Контур_2079" data-name="Контур 2079" d="M849.964,455.719h-1.728c-.018-.066-.042-.131-.054-.2a1.6,1.6,0,0,1-.006-.238V440.535c0-.125.012-.256.018-.387a.733.733,0,0,1,.155-.048h1.52a.749.749,0,0,1,.1.024,1.386,1.386,0,0,1,.042.167c.006.089.006.179.006.268v5.792a.92.92,0,0,0,.024.34c.089.03.113-.03.149-.077.137-.173.262-.352.411-.513a3.761,3.761,0,0,1,2.276-1.2,3.584,3.584,0,0,1,2.259.364,3.4,3.4,0,0,1,1.52,1.669,5.188,5.188,0,0,1,.423,1.823c.018.316.024.638.024.953V455.3a.828.828,0,0,1-.042.393,1.879,1.879,0,0,1-.578.036c-.191.006-.375,0-.566,0s-.393-.006-.6-.006a1.584,1.584,0,0,1-.042-.191c-.006-.089,0-.179,0-.268v-5.494a6.342,6.342,0,0,0-.072-1.162,3.559,3.559,0,0,0-.37-1.1A2.079,2.079,0,0,0,853,446.4a2.986,2.986,0,0,0-1,.1,2.907,2.907,0,0,0-1.978,2.616c0,.161-.006.316-.006.477v5.733A.926.926,0,0,1,849.964,455.719Z" transform="translate(-442.315 -396.063)" fill="#78c144"/>
    <path id="Контур_2080" data-name="Контур 2080" d="M1249.041,813.118l.286.286v.727c.072.048.107.012.143-.018.209-.167.411-.346.632-.5a3.932,3.932,0,0,1,1.979-.763,4.794,4.794,0,0,1,2.592.405,3.45,3.45,0,0,1,1.966,2.407,4.741,4.741,0,0,1,.1.65c.024.369.036.733.036,1.1v6.626c0,.072-.006.143,0,.208a.411.411,0,0,1-.173.387.371.371,0,0,1-.262.119c-.328-.006-.656,0-.983,0a.3.3,0,0,1-.238-.1c-.06-.066-.125-.131-.191-.2v-7.044a5.631,5.631,0,0,0-.113-1.186,3.016,3.016,0,0,0-.191-.6,1.515,1.515,0,0,0-.912-.852,3.468,3.468,0,0,0-2.169-.107,2.843,2.843,0,0,0-1.925,1.776,4.379,4.379,0,0,0-.28,1.49c-.006.167-.006.34-.006.506v5.584a1.214,1.214,0,0,0,0,.209c.048.226-.1.352-.25.471a.264.264,0,0,1-.167.048c-.34.006-.679,0-1.013,0a.272.272,0,0,1-.215-.089c-.065-.072-.137-.143-.209-.215v-10.7a1.783,1.783,0,0,0,0-.179.371.371,0,0,1,.119-.292.461.461,0,0,1,.387-.167C1248.338,813.124,1248.684,813.118,1249.041,813.118Z" transform="translate(-817.818 -746.572)" fill="#fff"/>
    <path id="Контур_2081" data-name="Контур 2081" d="M1035.247,522.205a5.039,5.039,0,0,1-.417-1.156.637.637,0,0,1,.262-.185,6.209,6.209,0,0,1,1.71-.6,7.375,7.375,0,0,1,2.08-.107,3.808,3.808,0,0,1,1.561.453,3.1,3.1,0,0,1,1.323,1.412,4.962,4.962,0,0,1,.429,1.543,9.652,9.652,0,0,1,.054,1.311V529a15.124,15.124,0,0,0,.1,1.639.591.591,0,0,1-.012.322.788.788,0,0,1-.089.03h-1.371a1.248,1.248,0,0,1-.125-.018c-.107-.423-.107-.864-.208-1.317a.931.931,0,0,0-.149.083c-.084.083-.155.185-.239.268a3.974,3.974,0,0,1-2.318,1.18,3.71,3.71,0,0,1-1.734-.125,2.842,2.842,0,0,1-2.02-2.33,3.248,3.248,0,0,1,.727-2.759,3.785,3.785,0,0,1,1.2-.918,6.62,6.62,0,0,1,1.865-.6,11.759,11.759,0,0,1,2.193-.185c.328.006.34-.012.334-.334a3.329,3.329,0,0,0-.167-1.025,1.955,1.955,0,0,0-1.478-1.341,4.168,4.168,0,0,0-1.514-.036,5.222,5.222,0,0,0-1.937.656A.2.2,0,0,0,1035.247,522.205Zm5.155,3.373a.564.564,0,0,0-.107-.024,12.748,12.748,0,0,0-1.43.042,7.329,7.329,0,0,0-1.079.2,3.246,3.246,0,0,0-1.12.536,1.91,1.91,0,0,0-.715,1.1,2.306,2.306,0,0,0,0,1.067,1.614,1.614,0,0,0,1.24,1.275,2.768,2.768,0,0,0,1.269-.012,2.573,2.573,0,0,0,2.008-2.467c-.006-.477,0-.953,0-1.43A.579.579,0,0,0,1040.4,525.578Z" transform="translate(-617.092 -471.326)" fill="#78c144"/>
    <path id="Контур_2082" data-name="Контур 2082" d="M1375.608,530.959c-.066-.423-.131-.834-.2-1.245,0-.012-.03-.024-.066-.048a2.018,2.018,0,0,0-.161.161,3.864,3.864,0,0,1-1.984,1.257,3.8,3.8,0,0,1-2.032.03,2.838,2.838,0,0,1-2.223-2.413,3.219,3.219,0,0,1,1.269-3.242,4.122,4.122,0,0,1,.87-.513,7.179,7.179,0,0,1,1.68-.5,11.44,11.44,0,0,1,2.163-.179c.328.006.346-.012.34-.334a3.183,3.183,0,0,0-.179-1.055,1.949,1.949,0,0,0-1.5-1.317,4.3,4.3,0,0,0-1.514-.03,5.177,5.177,0,0,0-1.907.65.174.174,0,0,1-.065.018c-.018-.012-.054-.024-.066-.048-.143-.358-.262-.727-.381-1.1.06-.048.113-.089.167-.125a5.951,5.951,0,0,1,1.812-.656,7.374,7.374,0,0,1,2.08-.107,3.806,3.806,0,0,1,1.561.453,3.115,3.115,0,0,1,1.341,1.442,4.982,4.982,0,0,1,.417,1.549,9.8,9.8,0,0,1,.053,1.251V528.8a16.486,16.486,0,0,0,.107,1.877.448.448,0,0,1-.018.292,7.451,7.451,0,0,1-1.424.036C1375.715,530.989,1375.661,530.971,1375.608,530.959Zm-.316-5.381a1.025,1.025,0,0,0-.215-.018,12.216,12.216,0,0,0-1.4.048,6.8,6.8,0,0,0-1.049.2,3.2,3.2,0,0,0-1.144.56,1.927,1.927,0,0,0-.667,1.031,2.3,2.3,0,0,0-.006,1.12,1.613,1.613,0,0,0,1.216,1.257,2.62,2.62,0,0,0,1.1.036,2.587,2.587,0,0,0,2.2-2.521c-.006-.465,0-.936,0-1.4C1375.322,525.792,1375.3,525.7,1375.292,525.578Z" transform="translate(-932.002 -471.326)" fill="#78c144"/>
    <path id="Контур_2083" data-name="Контур 2083" d="M1199.6,532.934c.036-.012.072-.018.083-.036a.768.768,0,0,0,.072-.161c.405-1.424.912-2.819,1.394-4.219.453-1.317.912-2.628,1.371-3.945q.062-.17.125-.322a11.119,11.119,0,0,1,1.889,0,.783.783,0,0,1-.107.364l-1.359,3.5q-1.251,3.209-2.5,6.418c-.036.089-.077.179-.113.262a15.041,15.041,0,0,1-1.752.018c-.1-.072-.119-.2-.161-.3-.459-1.216-.918-2.437-1.383-3.653q-1.171-3.1-2.336-6.2a2.086,2.086,0,0,1-.131-.4.71.71,0,0,1,.119-.042c.2-.024,1.615-.006,1.794.018a.568.568,0,0,1,.143.286c.334.959.667,1.913,1,2.872.453,1.305.906,2.61,1.347,3.921.149.441.268.894.4,1.341A.643.643,0,0,0,1199.6,532.934Z" transform="translate(-768.191 -475.161)" fill="#78c144"/>
    <path id="Контур_2084" data-name="Контур 2084" d="M1546.5,530.7c.137-.453.28-.894.441-1.359a1.705,1.705,0,0,1,.2.089,5.306,5.306,0,0,0,1.448.536,3.493,3.493,0,0,0,1.77-.024,2.077,2.077,0,0,0,.411-.173,1.515,1.515,0,0,0,.769-1.609,1.548,1.548,0,0,0-.6-1,3.678,3.678,0,0,0-.828-.471c-.245-.107-.495-.2-.745-.3a5.716,5.716,0,0,1-1.24-.649,4.238,4.238,0,0,1-.506-.411,2.582,2.582,0,0,1-.674-2.848,2.885,2.885,0,0,1,1.561-1.716,3.605,3.605,0,0,1,1.55-.381,7.942,7.942,0,0,1,.924.012,4.937,4.937,0,0,1,1.853.524.5.5,0,0,1,.072.048c.006.006.012.018.018.024a7.716,7.716,0,0,1-.423,1.293c-.077.03-.131-.024-.191-.054a4.18,4.18,0,0,0-1.376-.465,2.883,2.883,0,0,0-1.216.036,1.476,1.476,0,0,0-1.138,1.138,1.318,1.318,0,0,0,.363,1.263,1.92,1.92,0,0,0,.584.411c.357.173.727.328,1.084.489s.709.31,1.055.489a3.523,3.523,0,0,1,.93.7,2.623,2.623,0,0,1,.739,1.746,3.358,3.358,0,0,1-.149,1.263,2.91,2.91,0,0,1-1.376,1.621,4.362,4.362,0,0,1-1.579.495,5.881,5.881,0,0,1-1.073.048,6.048,6.048,0,0,1-2.437-.6c-.054-.024-.1-.06-.155-.089C1546.548,530.751,1546.536,530.733,1546.5,530.7Z" transform="translate(-1099.027 -471.553)" fill="#78c144"/>
    <path id="Контур_2085" data-name="Контур 2085" d="M1075.559,745.789v15.029a.446.446,0,0,0,0,.089.434.434,0,0,1-.185.411.376.376,0,0,1-.262.113q-.447-.009-.894,0a.414.414,0,0,1-.37-.149c-.036-.048-.083-.089-.131-.143-.006-.071-.012-.149-.012-.226q0-7.446-.006-14.892a.528.528,0,0,1,.191-.441.337.337,0,0,1,.244-.089c.3,0,.6.006.894,0a.452.452,0,0,1,.417.179C1075.482,745.706,1075.512,745.742,1075.559,745.789Z" transform="translate(-654.402 -683.254)" fill="#fff"/>
    <path id="Контур_2086" data-name="Контур 2086" d="M1164.209,829.039c-.042.048-.083.083-.113.119a.462.462,0,0,1-.417.173c-.286-.012-.578,0-.864-.006a.478.478,0,0,1-.441-.435V818.354a1.782,1.782,0,0,0,0-.179.392.392,0,0,1,.143-.34.426.426,0,0,1,.34-.143c.286.006.578.012.864,0a.437.437,0,0,1,.387.173c.03.036.066.072.107.119Q1164.206,823.5,1164.209,829.039Z" transform="translate(-737.79 -751.153)" fill="#fff"/>
    <path id="Контур_2087" data-name="Контур 2087" d="M1162.775,748.025h-1.293a.29.29,0,0,1-.161-.066.53.53,0,0,1-.226-.483c.018-.536.006-1.073.006-1.591.018-.042.024-.06.042-.072.28-.3.2-.25.554-.256s.715,0,1.049,0a.5.5,0,0,1,.077.036c.3.292.244.2.25.56.006.435,0,.876,0,1.311,0,.328.03.238-.208.489C1162.847,747.972,1162.817,747.99,1162.775,748.025Z" transform="translate(-736.588 -683.315)" fill="#fff"/>
    <path id="Контур_2088" data-name="Контур 2088" d="M1625.58,808.437a6.54,6.54,0,1,1-6.525-6.537A6.556,6.556,0,0,1,1625.58,808.437Zm-1.412.244a1.17,1.17,0,0,0,.024-.173,4.5,4.5,0,0,0-.089-1.1,5.154,5.154,0,0,0-6.061-4.046,4.988,4.988,0,0,0-3.438,2.407,5.13,5.13,0,0,0-.721,2.193,3.573,3.573,0,0,0-.012.358.87.87,0,0,0,.03.352.579.579,0,0,0,.119.03H1624A1.087,1.087,0,0,0,1624.168,808.681Zm-1.609,1.573a3.634,3.634,0,0,1-7.043-.006.328.328,0,0,0-.06-.018c-.387,0-.775-.006-1.162,0-.036,0-.065.03-.1.042a5.135,5.135,0,0,0,5.4,3.337,5.02,5.02,0,0,0,2.92-1.3,4.666,4.666,0,0,0,1.365-2.05A6.1,6.1,0,0,0,1622.559,810.254Zm-2.264.828a.513.513,0,0,0-.524-.5.507.507,0,1,0,.524.5Z" transform="translate(-1161.094 -736.302)"/>
    <path id="Контур_2089" data-name="Контур 2089" d="M1645.839,830.319a1.113,1.113,0,0,1-.167.024H1635.7a.5.5,0,0,1-.119-.03.893.893,0,0,1-.03-.352,3.57,3.57,0,0,1,.012-.358,5.21,5.21,0,0,1,.721-2.193,5,5,0,0,1,3.438-2.407,5.157,5.157,0,0,1,6.06,4.046,4.522,4.522,0,0,1,.089,1.1C1645.863,830.193,1645.851,830.241,1645.839,830.319Z" transform="translate(-1182.766 -757.939)" fill="#97ce2b"/>
    <path id="Контур_2090" data-name="Контур 2090" d="M1649.172,941.66a6.4,6.4,0,0,1,1.317.012,4.636,4.636,0,0,1-1.365,2.05,5.057,5.057,0,0,1-2.92,1.3,5.152,5.152,0,0,1-5.4-3.337c.03-.012.066-.042.1-.042h1.162a.317.317,0,0,1,.06.018,3.647,3.647,0,0,0,3.587,2.741A3.685,3.685,0,0,0,1649.172,941.66Z" transform="translate(-1187.708 -867.707)" fill="#fff"/>
    <path id="Контур_2091" data-name="Контур 2091" d="M1727.217,948.1a.509.509,0,0,1-.512.513.5.5,0,0,1-.507-.483.508.508,0,0,1,.489-.53A.522.522,0,0,1,1727.217,948.1Z" transform="translate(-1268.017 -873.318)" fill="#fff"/>
    <rect id="Прямоугольник_96" data-name="Прямоугольник 96" width="10.923" height="57.767" transform="translate(360 20.75)" fill="#78c044" opacity="0.6"/>
  </g>
</svg>
